<svg width="79" height="122" viewBox="0 0 79 122" fill="none" xmlns="http://www.w3.org/2000/svg">
<path d="M22.6351 1.65281C27.5161 0.244411 32.0598 0.0689344 36.2666 1.12177C40.4687 2.17461 44.3152 4.05864 47.8062 6.76461C51.2926 9.47521 54.4326 12.7215 57.2264 16.5126C60.0201 20.3037 62.5044 24.2426 64.6932 28.3339C66.8774 32.4252 68.7014 36.4611 70.1652 40.4462C71.629 44.4313 72.7788 47.8761 73.6146 50.7806C74.4504 53.6852 75.3093 57.2177 76.1913 61.3644C77.0733 65.5157 77.7151 69.9256 78.1169 74.5941C78.5186 79.2626 78.5555 83.9727 78.2231 88.7243C77.8952 93.4759 76.944 97.9366 75.374 102.102C73.8039 106.267 71.5505 109.906 68.609 113.018C65.6675 116.13 61.6963 118.407 56.6999 119.848C51.7036 121.288 47.2475 121.441 42.9807 120.402C38.7186 119.363 34.8397 117.493 31.3533 114.782C27.867 112.076 24.7177 108.797 21.9101 104.946C19.1026 101.1 16.6044 97.1285 14.4202 93.0373C12.2314 88.946 10.3982 84.8824 8.92051 80.8373C7.43823 76.7968 6.28379 73.3243 5.44337 70.4151C4.60294 67.5059 3.73484 63.8256 2.92674 59.7159C2.11864 55.6061 1.51832 51.2193 1.11658 46.5508C0.714835 41.8823 0.68716 37.2045 1.03349 32.5083C1.37982 27.8167 2.34493 23.4161 3.9288 19.3063C5.51267 15.2012 7.80763 11.5809 10.8045 8.45007C13.8014 5.31927 17.745 3.05198 22.6259 1.64358L22.6351 1.65281ZM56.2982 118.453C58.6209 117.784 60.2279 116.033 61.1099 113.198C61.9918 110.368 62.3844 106.918 62.2828 102.855C62.1812 98.7955 61.7379 94.418 60.9575 89.7356C60.1725 85.0532 59.2766 80.5279 58.27 76.1595C57.2633 71.7958 56.2844 67.8569 55.3377 64.3521C54.3911 60.8472 53.6846 58.2844 53.2136 56.6543C52.7426 55.0289 52.0176 52.4984 51.0294 49.0721C50.0412 45.6457 48.8083 41.813 47.3399 37.5786C45.8668 33.3488 44.2183 29.0358 42.3897 24.6582C40.561 20.276 38.6124 16.3694 36.5575 12.9339C34.498 9.50291 32.3 6.79694 29.9726 4.82518C27.6407 2.85341 25.3134 2.20232 22.9907 2.87189C20.6679 3.54146 19.0656 5.29618 18.179 8.12683C17.2971 10.9621 16.8676 14.3884 16.8953 18.4105C16.923 22.4325 17.3248 26.7824 18.1098 31.4647C18.8948 36.1471 19.786 40.6771 20.7972 45.0408C21.8039 49.4092 22.7783 53.3434 23.7295 56.8483C24.6762 60.3531 25.3827 62.9159 25.8537 64.546C26.3247 66.1761 27.0866 68.7204 28.1533 72.1929C29.2154 75.6608 30.476 79.4843 31.9305 83.6587C33.3851 87.8377 35.0383 92.1414 36.8808 96.579C38.7278 101.021 40.7088 104.946 42.8284 108.363C44.9479 111.781 47.1413 114.482 49.4132 116.472C51.6851 118.462 53.9801 119.118 56.3074 118.449L56.2982 118.453Z" fill="#E2EFF0"/>
</svg>
