<svg width="65" height="115" viewBox="0 0 65 115" fill="none" xmlns="http://www.w3.org/2000/svg">
<path d="M0.873672 99.9445C5.31591 95.3914 9.98442 90.2889 14.8838 84.6506C19.7786 79.0124 24.3362 73.0602 28.5522 66.794C32.7636 60.5277 36.2407 54.0629 38.9744 47.3996C41.7081 40.7362 43.0749 34.1006 43.0749 27.4926C43.0749 25.4424 42.9041 22.995 42.5624 20.1459C42.2206 17.3014 41.4772 14.5908 40.3412 12.0279C39.2007 9.4651 37.6353 7.30402 35.6404 5.53543C33.6456 3.77147 30.995 2.88487 27.6933 2.88487C24.7288 2.88487 22.3091 3.25428 20.4297 3.99774C18.5503 4.74119 17.0403 5.50773 15.8997 6.30659C16.694 8.47229 17.4651 11.206 18.2086 14.5076C18.9474 17.8139 19.2614 21.0602 19.1506 24.2464C19.0351 27.4372 18.2363 30.1709 16.7586 32.4474C15.2763 34.7286 12.6581 35.8645 8.89925 35.8645C6.6181 35.8645 4.79874 35.0703 3.4319 33.4726C2.06506 31.8795 1.09532 30.2864 0.527344 28.6886C0.753611 24.7035 1.66332 20.9724 3.26105 17.4953C4.85416 14.0228 7.07527 11.0305 9.9244 8.52309C12.7689 6.02029 16.1629 4.05315 20.0926 2.62628C24.0222 1.20403 28.4368 0.488281 33.3362 0.488281C38.8036 0.488281 43.4166 1.31485 47.1754 2.96799C50.9343 4.62113 53.9819 6.84225 56.3185 9.63135C58.6504 12.4251 60.3359 15.6436 61.3611 19.287C62.3862 22.935 62.8987 26.7492 62.8987 30.7343C62.8987 37.6839 61.1625 44.2087 57.6854 50.2995C54.2082 56.3949 50.0246 62.1762 45.1252 67.6436C40.7938 72.4276 35.2156 77.2115 28.3767 82.0001C21.5425 86.784 14.5329 91.568 7.35695 96.3565H64.9444V114.13H0.864456V99.9445H0.873672Z" fill="#E2EFF0"/>
</svg>
