<svg width="82" height="144" viewBox="0 0 82 144" fill="none" xmlns="http://www.w3.org/2000/svg">
<path d="M5.38628 33.2619C5.80649 29.0552 6.78545 24.9547 8.33238 20.9558C9.87469 16.9614 12.045 13.4566 14.8526 10.4412C17.6555 7.42587 21.1281 5.01081 25.2655 3.18681C29.3984 1.36744 34.3439 0.453125 40.093 0.453125C46.4008 0.453125 51.942 1.33049 56.7075 3.0806C61.473 4.83533 65.435 7.28734 68.5889 10.4412C71.7428 13.5951 74.1255 17.2754 75.7417 21.4822C77.3533 25.6889 78.1614 30.2466 78.1614 35.1552C78.1614 38.8032 77.4964 42.5897 76.1619 46.5148C74.8274 50.4398 72.7263 54.0555 69.8541 57.3479C66.9773 60.645 63.26 63.4156 58.707 65.6552C54.1493 67.8994 48.645 69.2293 42.194 69.6495C49.4854 70.2129 55.6177 71.5428 60.6002 73.6438C65.5781 75.7449 69.6463 78.377 72.8002 81.5309C75.9541 84.6847 78.2306 88.2265 79.6344 92.1516C81.0336 96.0766 81.7355 100.219 81.7355 104.559C81.7355 110.17 80.715 115.36 78.6878 120.126C76.6514 124.896 73.7792 128.959 70.0665 132.326C66.3493 135.692 61.8285 138.319 56.4997 140.213C51.1709 142.106 45.1401 143.053 38.4121 143.053C31.6841 143.053 26.4569 142.175 21.8992 140.425C17.3415 138.675 13.5181 136.292 10.4381 133.272C7.35343 130.257 5.00302 126.646 3.39144 122.439C1.77986 118.232 0.763961 113.679 0.34375 108.766C0.763961 106.804 1.77986 104.841 3.39144 102.879C5.00302 100.916 7.21027 99.9324 10.0178 99.9324C14.2246 99.9324 17.3785 101.442 19.4841 104.453C21.5852 107.469 22.989 111.047 23.6909 115.18C24.3928 119.318 24.5636 123.561 24.2173 127.907C23.8663 132.256 23.4831 135.687 23.0629 138.213C25.0254 139.335 27.1957 139.894 29.5831 139.894C34.6302 139.894 38.7631 138.67 41.9909 136.214C45.214 133.762 47.7399 130.677 49.5639 126.96C51.3833 123.247 52.6485 119.248 53.3504 114.972C54.0523 110.696 54.4033 106.739 54.4033 103.091C54.4033 99.7246 54.1908 96.1875 53.7706 92.4702C53.3504 88.7576 52.4038 85.3174 50.9307 82.1635C49.4577 79.0096 47.3197 76.4144 44.5168 74.3826C41.7092 72.3509 37.9965 71.335 33.3696 71.335H27.6898V68.6013H32.737C37.0822 68.6013 40.5871 67.4099 43.2515 65.0272C45.9113 62.6444 47.9477 59.6291 49.3515 55.9811C50.7507 52.3377 51.6973 48.3018 52.1914 43.8873C52.6809 39.4682 52.9256 35.2291 52.9256 31.1609C52.9256 27.7946 52.6116 24.4652 51.979 21.1682C51.3463 17.8757 50.2242 14.962 48.6127 12.4407C47.0011 9.91481 44.8954 7.88764 42.3049 6.3407C39.7097 4.79839 36.4496 4.02723 32.5246 4.02723C30.9822 4.02723 29.403 4.20271 27.7914 4.55365C26.1798 4.9046 24.6698 5.64343 23.2707 6.76092C23.9726 9.56848 24.6698 12.8979 25.3763 16.7536C26.0782 20.614 26.323 24.2574 26.1106 27.6884C25.8981 31.124 24.9561 34.07 23.2707 36.522C21.5898 38.9787 18.713 40.2024 14.6494 40.2024C12.4052 40.2024 10.475 39.4312 8.86341 37.8889C7.25183 36.3466 6.09279 34.8043 5.3909 33.2619H5.38628Z" fill="#E2EFF0"/>
</svg>
