<svg width="168" height="181" viewBox="0 0 168 181" fill="none" xmlns="http://www.w3.org/2000/svg">
<path d="M20.803 162.016C25.8225 165.253 30.9251 166.768 36.12 166.565C41.3103 166.357 46.4082 164.962 51.4185 162.381C56.4241 159.795 61.1987 156.147 65.7472 151.433C70.291 146.723 74.4793 141.398 78.3074 135.469C81.0549 131.212 83.3545 126.557 85.2108 121.51C87.0625 116.463 87.9907 111.351 87.9907 106.184C87.9861 101.012 86.8178 96.057 84.4905 91.3285C82.1585 86.5953 78.2566 82.4625 72.78 78.93C68.3654 76.0854 64.0017 74.5108 59.6795 74.1968C55.3573 73.8874 51.2199 74.2892 47.2717 75.402L46.182 73.0839L97.7294 0.6875L167.992 46.0103L151.66 71.3338L81.8538 26.3065L48.9665 72.2851C62.0623 68.674 74.8487 70.8905 87.3211 78.9346C95.536 84.2311 101.821 90.0125 106.184 96.2694C110.544 102.531 113.3 108.936 114.459 115.498C115.609 122.055 115.295 128.635 113.517 135.243C111.73 141.846 108.83 148.265 104.808 154.503C100.394 161.347 95.2636 166.874 89.436 171.076C83.5992 175.283 77.2268 178.063 70.3234 179.421C63.4153 180.778 56.0685 180.561 48.2876 178.774C40.5022 176.982 32.5089 173.441 24.294 168.144C17.9077 164.025 12.8929 159.44 9.25416 154.402C5.61079 149.359 3.14955 144.164 1.86582 138.812C0.577484 133.46 0.522046 128.039 1.69494 122.549C2.86322 117.058 4.91811 111.706 7.85036 106.493C10.0807 104.701 12.7082 103.381 15.7328 102.536C18.7528 101.686 21.7866 102.24 24.8297 104.207C28.9348 106.858 31.022 110.464 31.0913 115.031C31.1606 119.598 30.1908 124.359 28.1821 129.309C26.1688 134.259 23.6198 138.965 20.526 143.43C17.4321 147.895 14.7723 151.349 12.5512 153.792C14.2505 156.826 17.0027 159.574 20.8076 162.026L20.803 162.016Z" fill="#E2EFF0"/>
</svg>
