<svg width="79" height="133" viewBox="0 0 79 133" fill="none" xmlns="http://www.w3.org/2000/svg">
<path d="M40.223 132.199C32.0681 132.199 25.4048 130.481 20.2283 127.055C15.0519 123.629 10.9744 119.293 8.00062 114.052C5.0222 108.81 2.98579 103.117 1.88678 96.9707C0.787764 90.8245 0.238281 84.9692 0.238281 79.4049C0.238281 70.4742 1.78982 61.5805 4.89753 52.7145C8.00525 43.8532 12.5629 35.7629 18.5844 28.4485C24.6013 21.1386 32.0081 14.9555 40.8095 9.90838C49.6062 4.86122 59.7652 1.75351 71.2863 0.589844L71.4802 1.36562C64.4936 3.18037 58.4075 6.3158 53.2357 10.7811C48.0592 15.2464 43.6263 20.3259 39.9367 26.0196C36.2472 31.7178 33.2688 37.7624 31.0061 44.1672C28.7388 50.5719 27.0256 56.6257 25.8619 62.3147C28.4479 59.207 31.8788 56.5565 36.1502 54.3538C40.4215 52.1558 44.8869 51.0522 49.5461 51.0522C55.3691 51.0522 60.1253 52.2481 63.8149 54.6447C67.5044 57.0413 70.4136 60.0475 72.5516 63.6724C74.685 67.2973 76.1718 71.2777 77.0169 75.6091C77.8573 79.9452 78.2776 84.0549 78.2776 87.9338C78.2776 92.7224 77.5987 97.7372 76.2411 102.978C74.8835 108.219 72.6809 113.008 69.6424 117.344C66.5993 121.68 62.6835 125.24 57.8996 128.02C53.111 130.8 47.2235 132.195 40.2369 132.195L40.223 132.199ZM25.8573 64.8406C25.728 66.0043 25.5941 67.5281 25.4694 69.4029C25.3402 71.2823 25.2432 73.3187 25.1785 75.5168C25.1139 77.7194 25.0815 79.9498 25.0815 82.2125V88.3263C25.0815 90.3997 25.1785 93.729 25.3724 98.3236C25.5664 102.918 26.1482 107.61 27.1179 112.398C28.0877 117.187 29.5422 121.394 31.4863 125.014C33.4257 128.639 36.2102 130.449 39.8351 130.449C43.1968 130.449 45.852 129.027 47.7961 126.178C49.7355 123.333 51.1577 119.902 52.0674 115.889C52.9725 111.881 53.522 107.675 53.7159 103.274C53.9099 98.8778 54.0068 95.1882 54.0068 92.2098C54.0068 90.3997 53.8776 87.5505 53.619 83.667C53.3604 79.7835 52.7462 75.9047 51.7765 72.0212C50.8068 68.1377 49.3799 64.7113 47.5051 61.7329C45.6257 58.7591 43.0721 57.2676 39.8398 57.2676C36.6074 57.2676 34.0445 58.0757 31.7818 59.6919C29.5145 61.3127 27.5428 63.0259 25.8619 64.836L25.8573 64.8406Z" fill="#E2EFF0"/>
</svg>
