<svg width="51" height="89" viewBox="0 0 51 89" fill="none" xmlns="http://www.w3.org/2000/svg">
<path d="M2.24608 24.1807C2.24608 21.1653 2.74017 18.2561 3.73298 15.4532C4.72117 12.6549 6.20806 10.1336 8.19367 7.8894C10.1747 5.64981 12.6544 3.86275 15.6282 2.52361C18.602 1.1891 22.0699 0.519531 26.0365 0.519531C33.0185 0.519531 38.4027 2.28811 42.1985 5.82066C45.9896 9.35782 47.8875 13.9663 47.8875 19.6553C47.8875 24.0514 46.6592 27.7825 44.2026 30.8394C41.746 33.9009 38.3612 36.5515 34.0528 38.7911C39.3955 41.8942 43.4268 45.5376 46.142 49.7166C48.8572 53.9002 50.2148 58.7904 50.2148 64.3917C50.2148 67.8411 49.6745 71.0319 48.5986 73.9596C47.5181 76.8918 45.8834 79.4131 43.6854 81.5234C41.4874 83.6383 38.7491 85.2729 35.4751 86.4366C32.1965 87.6003 28.3176 88.1821 23.8385 88.1821C16.1638 88.1821 10.4333 86.4597 6.64213 83.0103C2.84637 79.5655 0.953125 74.7353 0.953125 68.5291C0.953125 63.8745 2.24608 59.8248 4.832 56.3753C7.41791 52.9305 11.0382 49.9567 15.6929 47.4539C6.72527 41.6818 2.24608 33.924 2.24608 24.1807ZM16.3393 47.8418C13.2362 50.3446 11.1028 52.9721 9.93918 55.7289C8.77552 58.4902 8.19367 62.1521 8.19367 66.719C8.19367 69.1341 8.55848 71.5676 9.29269 74.0242C10.0223 76.4808 11.0798 78.702 12.4605 80.683C13.8365 82.6686 15.5174 84.2617 17.503 85.4669C19.484 86.6721 21.682 87.277 24.0971 87.277C26.0781 87.277 27.8236 86.8245 29.3336 85.9194C30.8389 85.0144 32.0672 83.8738 33.0185 82.4931C33.9651 81.117 34.6762 79.5655 35.1519 77.8384C35.6229 76.116 35.863 74.4767 35.863 72.9252C35.863 70.3393 35.2812 67.818 34.1175 65.3614C32.9538 62.9048 31.4208 60.6236 29.5275 58.5087C27.6296 56.3984 25.5193 54.4359 23.192 52.6258C20.8647 50.8156 18.5789 49.2225 16.3393 47.8418ZM15.6929 15.3886C15.6929 17.8913 16.2285 20.2602 17.3091 22.4998C18.385 24.744 19.7657 26.8128 21.4465 28.706C23.1273 30.6039 25.0206 32.3494 27.1355 33.9425C29.2458 35.5402 31.2915 36.981 33.2771 38.2739C34.9117 37.3273 36.5279 35.5587 38.1257 32.9728C39.7188 30.3869 40.5176 26.6835 40.5176 21.8533C40.5176 19.8724 40.3006 17.6974 39.8712 15.3239C39.4371 12.955 38.6844 10.7339 37.6085 8.66517C36.5279 6.59644 35.0872 4.87403 33.2771 3.49334C31.4669 2.11726 29.1396 1.42461 26.2951 1.42461C24.3095 1.42461 22.6286 1.85866 21.2526 2.71756C19.8719 3.58107 18.7729 4.68008 17.9555 6.0146C17.1336 7.35374 16.5517 8.85911 16.21 10.54C15.8637 12.2208 15.6929 13.837 15.6929 15.3886Z" fill="#E2EFF0"/>
</svg>
