<svg width="158" height="104" viewBox="0 0 158 104" fill="none" xmlns="http://www.w3.org/2000/svg">
<path d="M150.945 21.2972C155.623 29.4982 157.719 37.1913 157.239 44.3673C156.754 51.5432 154.736 58.128 151.171 64.1357C147.606 70.1387 143.044 75.4537 137.493 80.0898C131.938 84.7214 126.36 88.6372 120.764 91.8281C111.777 96.9491 101.932 100.495 91.2333 102.453C80.5294 104.416 69.7748 104.467 58.9693 102.606C48.1593 100.745 37.6909 96.8383 27.5643 90.8768C17.4377 84.9153 8.48396 76.4788 0.703125 65.5579L1.37267 64.9161C7.20484 70.9098 13.8497 75.2274 21.3166 77.8733C28.7788 80.5193 36.4303 82.0662 44.2758 82.5095C52.1213 82.9528 59.916 82.4772 67.6599 81.078C75.4038 79.6789 82.4735 77.938 88.8736 75.8415C84.2605 75.0196 79.6244 73.0894 74.9651 70.0556C70.3012 67.0217 66.6348 63.1613 63.9611 58.4744C60.6179 52.6145 59.094 47.1425 59.3896 42.0584C59.6805 36.9743 61.0381 32.3197 63.4577 28.0898C65.8774 23.8646 69.0267 20.0827 72.9056 16.7487C76.7845 13.4148 80.6772 10.6349 84.5838 8.40454C89.4 5.657 94.8351 3.46359 100.889 1.82431C106.943 0.185019 113.02 -0.350635 119.129 0.221961C125.233 0.794556 131.061 2.69243 136.611 5.91098C142.157 9.12952 146.937 14.2598 150.945 21.2879V21.2972ZM115.49 61.7021C116.922 60.8848 118.921 59.7027 121.488 58.1511C124.051 56.5996 126.808 54.7709 129.75 52.6653C132.686 50.555 135.619 48.2831 138.542 45.8403C141.46 43.3975 143.972 40.8439 146.078 38.1795C148.179 35.5105 149.615 32.883 150.382 30.2925C151.143 27.6973 150.82 25.1622 149.412 22.6917C147.482 19.3023 144.526 17.4552 140.55 17.132C136.57 16.8134 132.303 17.349 127.75 18.739C123.192 20.1289 118.644 21.9898 114.109 24.3172C109.57 26.6491 105.802 28.667 102.81 30.371C100.986 31.41 98.1968 33.1739 94.438 35.6629C90.6792 38.1518 87.1281 40.9963 83.7757 44.201C80.4278 47.4057 77.7911 50.8043 75.8748 54.4015C73.9538 57.9941 73.9261 61.4204 75.7824 64.6759C77.5649 67.8021 79.9153 70.0371 82.8475 71.3901C85.7706 72.7384 88.6289 73.7405 91.418 74.3962C92.6648 73.8559 94.2671 73.1171 96.2297 72.1705C98.1876 71.2238 100.293 70.1525 102.551 68.9565C104.8 67.7606 107.067 66.5138 109.344 65.2116C111.62 63.9094 113.671 62.7457 115.495 61.7021H115.49Z" fill="#E2EFF0"/>
</svg>
