<svg width="126" height="188" viewBox="0 0 126 188" fill="none" xmlns="http://www.w3.org/2000/svg">
<path d="M124.188 68.0154H121.528V65.6188C121.528 57.1037 120.374 48.501 118.069 39.8058C115.76 31.1153 112.034 23.6623 106.894 17.4515C102.812 12.8384 98.3332 9.2966 93.4569 6.80766C88.576 4.32333 83.478 3.08118 78.1584 3.08118C71.412 3.08118 65.6906 4.77125 60.9944 8.13756C56.2936 11.5085 52.387 15.8538 49.2839 21.178C46.1762 26.5022 43.7796 32.5329 42.0987 39.2748C40.4087 46.0166 39.2127 52.7585 38.5062 59.5003C37.795 66.2422 37.3517 72.6747 37.1763 78.7931C36.9962 84.9162 36.9131 90.1019 36.9131 94.3594C36.9131 98.266 37.0885 103.235 37.4441 109.261C37.7997 115.296 38.5523 121.682 39.7068 128.424C40.8612 135.166 42.4543 141.908 44.4953 148.645C46.5317 155.387 49.1915 161.418 52.4794 166.742C55.7579 172.066 59.7522 176.411 64.4531 179.782C69.1493 183.153 74.7875 184.839 81.3493 184.839C89.3333 184.839 95.9874 182.89 101.307 178.984C106.631 175.082 110.889 170.159 114.08 164.216C117.275 158.273 119.538 151.753 120.863 144.655C122.193 137.563 122.858 130.733 122.858 124.167V121.239H125.254V184.045L123.394 183.777L113.013 170.468C108.4 176.679 103.256 181.025 97.5805 183.509C91.9007 185.993 85.2466 187.235 77.6228 187.235C63.0724 187.235 50.877 184.483 41.0321 178.988C31.1871 173.488 23.2446 166.396 17.2139 157.701C11.1832 149.01 6.92104 139.299 4.44133 128.563C1.95701 117.831 0.714844 107.234 0.714844 96.7606C0.714844 86.2876 1.86927 75.4314 4.17351 64.1596C6.47774 52.897 10.4674 42.5626 16.1472 33.1563C21.8224 23.7547 29.5386 16.0385 39.2958 10.0031C49.0484 3.97239 61.47 0.957031 76.5515 0.957031C89.8597 0.957031 100.854 6.63681 109.55 17.9871L122.054 4.14787L124.183 3.88466V68.0154H124.188Z" fill="#DC0000"/>
</svg>
