<svg width="144" height="187" viewBox="0 0 144 187" fill="none" xmlns="http://www.w3.org/2000/svg">
<path d="M66.2847 95.0587H143.456V96.6564H138.93C135.024 96.6564 132.189 96.9243 130.415 97.4553C128.638 97.9863 127.756 100.032 127.756 103.578L127.488 170.637C119.859 176.136 112.097 180.131 104.205 182.61C96.309 185.095 87.3091 186.337 77.1963 186.337C62.4704 186.337 50.1874 183.585 40.3424 178.09C30.4974 172.59 22.6011 165.497 16.6582 156.802C10.7105 148.112 6.4992 138.401 4.01949 127.664C1.53055 116.933 0.292969 106.335 0.292969 95.8622C0.292969 85.3892 1.48897 74.533 3.88556 63.2612C6.28215 51.9986 10.4474 41.6642 16.3903 32.2579C22.3333 22.8562 30.3589 15.14 40.4717 9.10468C50.5844 3.07396 63.3571 0.0585938 78.7894 0.0585938C84.4646 0.0585938 90.2321 1.43467 96.0874 4.1822C101.943 6.93436 107.087 11.1457 111.52 16.8209L123.761 3.24943L125.89 2.98622V67.117H123.23V64.1893C123.23 55.1432 122.071 46.8037 119.772 39.1752C117.463 31.5514 114.318 24.985 110.324 19.4853C106.334 13.9856 101.675 9.73269 96.3552 6.71271C91.031 3.69735 85.3558 2.18736 79.3251 2.18736C72.4031 2.18736 66.5525 3.87744 61.7593 7.24375C56.9708 10.6147 52.9764 14.9599 49.7856 20.2842C46.5948 25.6084 44.1058 31.6391 42.3326 38.381C40.5594 45.1228 39.2249 51.8647 38.3429 58.6065C37.4517 65.3484 36.9207 71.7808 36.7452 77.8993C36.5651 84.0224 36.482 89.2081 36.482 93.4656C36.482 97.3722 36.7452 102.295 37.2809 108.233C37.8119 114.181 38.6985 120.521 39.9407 127.263C41.1782 134.004 42.9098 140.746 45.131 147.484C47.3475 154.23 50.2289 160.302 53.7799 165.714C57.3263 171.126 61.4961 175.518 66.2847 178.889C71.0732 182.26 76.7484 183.945 83.3148 183.945C85.619 183.945 87.5261 183.719 89.0361 183.28C90.5415 182.841 92.3609 182.079 94.4897 181.017L94.2218 103.578C94.2218 100.032 92.9335 97.991 90.3614 97.4553C87.7893 96.9243 84.991 96.6564 81.9802 96.6564H66.28V95.0587H66.2847Z" fill="#DC0000"/>
</svg>
