<svg width="61" height="192" viewBox="0 0 61 192" fill="none" xmlns="http://www.w3.org/2000/svg">
<path d="M2.07499 190.126C5.97695 190.126 8.85839 189.863 10.7239 189.327C12.5849 188.796 13.5177 186.76 13.5177 183.209V78.8948C13.5177 75.5285 12.6265 72.8225 10.8579 70.7815C9.08468 68.7451 5.97697 67.9 1.54397 68.251L0.477278 68.5188V66.9211L47.3101 63.4624V183.213C47.3101 186.764 48.2428 188.801 50.1038 189.332C51.9647 189.863 54.7584 190.131 58.4849 190.131H60.3458V191.729H0.472656V190.131H2.07037L2.07499 190.126ZM47.8457 19.2848C47.8457 24.609 45.9848 29.0882 42.2583 32.7223C38.5318 36.3611 34.0988 38.1759 28.9501 38.1759C23.8013 38.1759 19.4145 36.3611 15.7757 32.7223C12.137 29.0882 10.3222 24.6044 10.3222 19.2848C10.3222 13.9652 12.137 9.74923 15.7757 6.11048C19.4145 2.47172 23.8013 0.652344 28.9501 0.652344C34.0988 0.652344 38.5318 2.47172 42.2583 6.11048C45.9848 9.74923 47.8457 14.1407 47.8457 19.2848Z" fill="#DC0000"/>
</svg>
