<svg width="193" height="212" viewBox="0 0 193 212" fill="none" xmlns="http://www.w3.org/2000/svg">
<path d="M188.683 1.96812C184.601 1.96812 181.364 2.2775 178.972 2.90089C176.576 3.52428 175.38 5.34365 175.38 8.3544V202.621C175.38 206.172 176.312 208.209 178.173 208.74C180.034 209.271 182.916 209.539 186.822 209.539H192.41V211.136H112.579V209.539H127.48C129.078 209.539 130.629 209.497 132.139 209.405C133.645 209.317 135.021 209.095 136.263 208.74C137.501 208.389 138.526 207.719 139.325 206.745C140.123 205.771 140.521 204.395 140.521 202.621L140.788 9.68893L93.6878 194.213H79.0496L25.0317 4.10149V169.886C25.0317 172.195 25.5627 173.927 26.6294 175.077C27.6961 176.231 29.0676 177.03 30.753 177.473C32.4385 177.917 34.4795 178.138 36.8715 178.138H52.7056V179.736H0.816406V178.138H9.59928C13.5012 178.138 16.6921 177.834 19.181 177.206C21.6654 176.587 22.9075 174.144 22.9075 169.886L23.1753 9.15789C23.1753 5.79158 22.0163 3.74593 19.7167 3.0348C17.4078 2.3283 14.4848 1.97274 10.9338 1.97274H4.01648V0.375H59.3689L102.212 154.56L141.065 0.375H192.691V1.97274H188.697L188.683 1.96812Z" fill="#DC0000"/>
</svg>
