<svg width="409" height="956" viewBox="0 0 409 956" fill="none" xmlns="http://www.w3.org/2000/svg">
<path d="M235.325 459.072C235.325 474.202 245.44 487.454 260.047 491.555C345.997 515.686 409 594.419 409 687.823V956H0L1.17123e-10 687.823C1.17123e-10 594.419 63.003 515.686 148.953 491.555C163.56 487.454 173.675 474.204 173.675 459.072C173.675 443.942 163.56 430.689 148.953 426.588C63.003 402.46 1.17123e-10 323.724 1.17123e-10 230.32L1.30967e-10 -0.5H409V230.32C409 323.724 345.997 402.458 260.047 426.588C245.44 430.689 235.325 443.94 235.325 459.072Z" fill="#240046"/>
</svg>
