<svg width="129" height="149" viewBox="0 0 129 149" fill="none" xmlns="http://www.w3.org/2000/svg">
<path d="M128.901 127.586V129.184H68.7603V127.586H71.6879C74.7033 127.586 77.183 127.323 79.1409 126.787C81.0896 126.256 82.0685 124.22 82.0685 120.669L82.5996 47.7554C82.5996 45.9822 82.5534 43.1007 82.4656 39.1064C82.3733 35.1121 81.9346 31.1224 81.1357 27.1327C80.3369 23.1384 79.0485 19.6382 77.2753 16.6228C75.4975 13.6074 73.0178 12.0975 69.8223 12.0975C67.6936 12.0975 65.5186 12.5869 63.3021 13.5613C61.081 14.5402 59.0446 15.7362 57.1837 17.1538C55.3227 18.5761 53.545 20.1276 51.8595 21.8131C50.1694 23.4986 48.7979 25.0501 47.7359 26.4678V139.56C47.7359 143.111 48.7102 145.147 50.6635 145.679C52.6121 146.21 55.1889 146.477 58.3797 146.477H61.3073V148.075H0.898438V146.477H1.96513C5.86709 146.477 8.84089 146.214 10.8819 145.679C12.9183 145.147 13.9435 143.111 13.9435 139.56V16.355C13.9435 12.9887 13.0522 10.2827 11.2837 8.24166C9.51046 6.20525 6.40275 5.36021 1.96975 5.71115L0.90306 5.97899V4.38125L47.7405 0.922591V23.0091C51.6424 17.5094 56.431 12.4576 62.1108 7.83992C67.7859 3.22683 74.791 0.917969 83.1352 0.917969C89.8771 0.917969 95.3768 2.42797 99.6343 5.44333C103.892 8.46331 107.217 12.1852 109.613 16.6182C112.01 21.0558 113.644 25.8444 114.536 30.9885C115.422 36.1372 115.866 40.9258 115.866 45.3588L116.133 120.669C116.133 124.22 117.108 126.256 119.061 126.787C121.01 127.319 124.025 127.586 128.107 127.586H128.906H128.901Z" fill="#DC0000"/>
</svg>
