<svg width="105" height="148" viewBox="0 0 105 148" fill="none" xmlns="http://www.w3.org/2000/svg">
<path d="M104.973 146.11V147.412H56.0254V146.11H58.4081C60.8601 146.11 62.8827 145.893 64.4712 145.459C66.0597 145.025 66.8539 143.367 66.8539 140.477L67.288 38.2637C67.288 36.823 67.251 34.4726 67.1772 31.2263C67.1033 27.9755 66.7431 24.7292 66.0966 21.4783C65.4501 18.2275 64.3973 15.3783 62.9566 12.9217C61.5112 10.4697 59.4887 9.24139 56.8935 9.24139C55.1619 9.24139 53.3887 9.64314 51.5878 10.4328C49.7822 11.227 48.1245 12.2014 46.6052 13.3558C45.0906 14.5148 43.6453 15.7755 42.2738 17.1469C40.8977 18.5184 39.7849 19.7836 38.9168 20.9381V97.6105C38.9168 100.501 39.7064 102.159 41.2995 102.593C42.888 103.027 44.9799 103.244 47.5796 103.244H49.9623V104.546H0.797591V103.244H1.66572C4.83809 103.244 7.25778 103.027 8.92015 102.593C10.5779 102.159 11.4091 100.501 11.4091 97.6105V12.7093C11.4091 9.96638 10.6841 7.76374 9.24337 6.10598C7.79803 4.44822 5.27215 3.76017 1.6611 4.04647L0.792969 4.26352V2.96132L38.9122 0.144531V18.1213C42.0845 13.6467 45.9865 9.53231 50.6088 5.77811C55.2265 2.02392 60.9294 0.144531 67.7174 0.144531C73.2033 0.144531 77.6824 1.37283 81.1457 3.82483C84.609 6.28145 87.3196 9.31529 89.2683 12.9217C91.2169 16.5328 92.5515 20.4301 93.2765 24.6184C93.9968 28.8066 94.357 32.7086 94.357 36.315L94.574 140.477C94.574 143.367 95.3636 145.025 96.9568 145.459C98.5452 145.893 100.997 146.11 104.322 146.11H104.973Z" fill="#DC0000"/>
</svg>
