<svg width="92" height="110" viewBox="0 0 92 110" fill="none" xmlns="http://www.w3.org/2000/svg">
<path d="M46.0355 0.446028C54.4305 0.446028 61.5049 2.2146 67.2493 5.74715C72.9937 9.28431 77.6345 13.7034 81.1717 19.0046C84.7088 24.3057 87.2855 30.161 88.9063 36.5704C90.5271 42.9797 91.3352 49.0566 91.3352 54.8011C91.3352 60.5455 90.5964 66.881 89.1234 73.3643C87.6503 79.8475 85.1798 85.7767 81.7212 91.1517C78.2579 96.5313 73.6171 100.987 67.7988 104.52C61.9758 108.057 54.7261 109.821 46.0309 109.821C37.3358 109.821 30.303 108.089 24.4847 104.626C18.6664 101.167 13.9886 96.7483 10.4515 91.3687C6.9143 85.9937 4.4115 80.0645 2.93845 73.5813C1.4654 67.098 0.726562 60.841 0.726562 54.8011C0.726562 48.7611 1.53467 42.9797 3.15548 36.5704C4.7763 30.161 7.38992 24.2734 11.001 18.8938C14.6074 13.5187 19.2898 9.09961 25.0342 5.63633C30.7786 2.17766 37.7744 0.441406 46.0263 0.441406L46.0355 0.446028ZM50.6763 108.062C53.4747 107.914 55.7235 106.736 57.4182 104.525C59.1083 102.313 60.4335 99.5189 61.394 96.1296C62.3499 92.7448 63.0148 88.986 63.3842 84.8624C63.749 80.7387 63.9384 76.7259 63.9384 72.8194C63.9384 68.9128 63.8276 65.274 63.6059 61.88C63.3843 58.4952 63.1995 55.9139 63.0518 54.1454C62.904 52.3768 62.6454 49.837 62.276 46.5215C61.9066 43.206 61.394 39.5996 60.7291 35.693C60.0641 31.791 59.1821 27.8475 58.0785 23.8717C56.9749 19.8958 55.6496 16.2478 54.1027 12.9323C52.5557 9.61679 50.7133 6.96623 48.5799 4.976C46.4419 2.98577 44.0499 2.06682 41.3993 2.21459C38.7488 2.36236 36.5369 3.53989 34.7683 5.75177C32.9997 7.96365 31.6375 10.762 30.6816 14.1468C29.7212 17.5362 29.0608 21.295 28.6914 25.414C28.322 29.5422 28.1373 33.555 28.1373 37.4569C28.1373 41.3589 28.2481 45.0069 28.4698 48.3963C28.6914 51.7857 28.8761 54.3624 29.0239 56.131C29.167 57.8995 29.4302 60.4393 29.795 63.7548C30.1598 67.0703 30.677 70.6814 31.342 74.5833C32.0069 78.4899 32.8889 82.4657 33.9925 86.5155C35.0962 90.5698 36.4215 94.2132 37.9684 97.4548C39.5153 100.696 41.3162 103.31 43.3803 105.3C45.4398 107.291 47.8734 108.209 50.6717 108.062H50.6763Z" fill="#DC0000"/>
</svg>
