<svg width="99" height="119" viewBox="0 0 99 119" fill="none" xmlns="http://www.w3.org/2000/svg">
<path d="M38.1979 1.91992C47.0455 0.19751 54.854 0.613077 61.6328 3.16205C68.4116 5.71103 74.2068 9.41446 79.0138 14.2769C83.8255 19.1394 87.7367 24.7822 90.7613 31.2008C93.7813 37.6194 95.8777 43.8533 97.0552 49.9071C98.2605 56.1133 98.7499 62.7859 98.5283 69.9157C98.302 77.05 96.9167 83.8011 94.3723 90.1736C91.8234 96.5506 87.8475 102.193 82.4448 107.111C77.0375 112.029 69.7553 115.377 60.603 117.155C51.5985 118.905 43.6792 118.549 36.8403 116.097C30.0015 113.645 24.1693 109.947 19.3438 105.006C14.5183 100.065 10.6625 94.3341 7.78569 87.8047C4.90424 81.2799 2.84936 74.8335 1.61182 68.4703C0.434302 62.4165 0.0418067 55.8501 0.43893 48.7666C0.831435 41.683 2.37836 34.9458 5.07972 28.5364C7.78108 22.1363 11.8031 16.5211 17.1458 11.6956C22.4885 6.87468 29.5028 3.61462 38.1979 1.92454V1.91992ZM65.133 114.338C68.0514 113.608 70.1756 111.909 71.5101 109.231C72.84 106.557 73.6619 103.339 73.9806 99.5706C74.2946 95.8072 74.2207 91.7159 73.7681 87.2921C73.311 82.873 72.683 78.6062 71.8841 74.4918C71.0852 70.382 70.2217 66.5632 69.2936 63.0353C68.3654 59.512 67.6404 56.8337 67.1279 55.0005C66.6107 53.1672 65.8165 50.5443 64.7498 47.1272C63.6831 43.7101 62.3993 40.016 60.9032 36.0356C59.4025 32.0597 57.6662 28.0885 55.6852 24.1265C53.7042 20.1645 51.5616 16.5949 49.2527 13.418C46.9439 10.2456 44.4596 7.82594 41.8044 6.16818C39.1446 4.51043 36.434 4.03481 33.6726 4.72746C30.9066 5.42935 28.824 7.11944 27.411 9.81156C26.0025 12.5037 25.139 15.7315 24.825 19.4949C24.5064 23.2629 24.5803 27.3588 25.0375 31.7734C25.4946 36.1971 26.1226 40.4639 26.9215 44.5737C27.7203 48.6881 28.5839 52.5069 29.512 56.0302C30.4402 59.5581 31.1605 62.2318 31.6777 64.065C32.1903 65.8982 32.9845 68.5211 34.0512 71.9382C35.1179 75.3553 36.4016 79.0541 37.8978 83.0299C39.3939 87.0058 41.144 91.0186 43.1343 95.0591C45.1291 99.1042 47.2717 102.674 49.5667 105.768C51.8617 108.866 54.2952 111.249 56.8765 112.925C59.4532 114.597 62.2054 115.068 65.1238 114.338H65.133Z" fill="#DC0000"/>
</svg>
