<svg width="116" height="152" viewBox="0 0 116 152" fill="none" xmlns="http://www.w3.org/2000/svg">
<path d="M57.9077 151.969C50.5424 151.969 44.0083 150.777 38.3055 148.395C32.598 146.012 27.6201 142.872 23.3626 138.974C19.1004 135.077 15.5263 130.529 12.6403 125.329C9.74959 120.13 7.44073 114.718 5.70909 109.084C3.97745 103.45 2.71219 97.7891 1.91794 92.0816C1.12369 86.3788 0.726562 81.073 0.726562 76.1644C0.726562 68.7992 1.62704 60.6812 3.43256 51.7968C5.23809 42.9169 8.30424 34.6881 12.6357 27.1059C16.9671 19.5236 22.8177 13.1742 30.1783 8.04396C37.5436 2.92293 46.779 0.355469 57.8984 0.355469C69.0179 0.355469 78.2579 2.92293 85.6232 8.04396C92.9884 13.1696 98.8344 19.5236 103.166 27.1059C107.497 34.6835 110.563 42.9169 112.369 51.7968C114.174 60.6766 115.075 68.7992 115.075 76.1644C115.075 81.073 114.715 86.3834 113.994 92.0816C113.269 97.7891 112.009 103.45 110.203 109.084C108.398 114.713 106.089 120.097 103.272 125.218C100.455 130.344 96.9181 134.892 92.6605 138.864C88.3984 142.835 83.4205 146.012 77.7176 148.395C72.0101 150.777 65.4068 151.969 57.8984 151.969H57.9077ZM57.9077 2.09173C53.5762 2.09173 49.8959 3.53708 46.8621 6.42314C43.8283 9.31383 41.3024 13.0311 39.2798 17.5749C37.2573 22.1233 35.6318 27.2121 34.4081 32.8457C33.1798 38.4793 32.2424 44.039 31.5913 49.5248C30.9402 55.0153 30.5431 60.104 30.4 64.7956C30.2522 69.4918 30.1829 73.2783 30.1829 76.1644C30.1829 79.1982 30.2891 83.1694 30.5062 88.0781C30.7232 92.9867 31.1573 98.1862 31.8038 103.672C32.4549 109.163 33.3922 114.685 34.6206 120.24C35.8442 125.8 37.4697 130.783 39.4922 135.183C41.5148 139.589 44.0407 143.195 47.0745 146.012C50.1083 148.829 53.7148 150.237 57.903 150.237C62.0913 150.237 65.9194 148.796 68.9486 145.906C71.9824 143.02 74.5037 139.298 76.5309 134.754C78.5534 130.205 80.1742 125.154 81.4026 119.594C82.6263 114.039 83.5683 108.516 84.2194 103.026C84.8704 97.5397 85.263 92.4141 85.4107 87.6487C85.5539 82.8832 85.6278 79.0597 85.6278 76.169C85.6278 73.1352 85.5216 69.2055 85.3045 64.3661C85.0875 59.5314 84.6534 54.3688 84.007 48.8783C83.3559 43.3925 82.4138 37.8697 81.1901 32.31C79.9618 26.7549 78.3364 21.7354 76.3185 17.2563C74.2959 12.7817 71.77 9.13373 68.7362 6.32154C65.7024 3.50474 62.0913 2.09635 57.9077 2.09635V2.09173Z" fill="#DC0000"/>
</svg>
