<svg width="94" height="164" viewBox="0 0 94 164" fill="none" xmlns="http://www.w3.org/2000/svg">
<path d="M57.8374 66.5788C64.0528 69.8435 69.3817 73.1498 73.8147 76.493C78.2477 79.8409 81.8956 83.4889 84.7771 87.4555C87.6539 91.4221 89.7919 95.7766 91.1911 100.514C92.5903 105.257 93.2875 110.659 93.2875 116.723C93.2875 123.566 92.1193 129.823 89.7873 135.498C87.4554 141.178 84.0752 146.073 79.6422 150.192C75.2092 154.315 69.8065 157.538 63.4294 159.87C57.0524 162.202 49.821 163.371 41.74 163.371C29.2999 163.371 19.1179 158.24 11.1847 147.975L2.32329 160.572L0.688619 160.337L0.453125 105.525H1.85229C1.85229 111.588 2.51261 117.886 3.83328 124.416C5.15394 130.945 7.33351 136.976 10.3627 142.489C13.3966 148.012 17.3955 152.561 22.3734 156.135C27.3467 159.713 33.4882 161.5 40.798 161.5C45.4619 161.5 49.6225 160.762 53.2751 159.284C56.9277 157.806 59.9615 155.784 62.372 153.221C64.7824 150.653 66.648 147.624 67.9686 144.124C69.2893 140.624 69.9496 136.934 69.9496 133.046C69.9496 128.539 69.3678 124.614 68.1995 121.266C67.0312 117.923 65.4751 115.051 63.5356 112.636C61.5916 110.225 59.2227 108.05 56.4197 106.106C53.6214 104.162 50.5876 102.338 47.3229 100.625L38.9279 95.9613C33.1742 92.6966 28.0439 89.3164 23.5324 85.8162C19.0209 82.3206 15.2898 78.5525 12.3391 74.5028C9.38377 70.4623 7.12571 65.9508 5.57416 60.9729C4.01799 55.9996 3.24221 50.3983 3.24221 44.1783C3.24221 37.9582 4.13343 32.1676 5.9251 26.8018C7.71215 21.4361 10.4736 16.7722 14.2047 12.8102C17.9358 8.84358 22.7197 5.73588 28.5473 3.47782C34.3794 1.22438 41.3383 0.0976562 49.4239 0.0976562C56.4197 0.0976562 62.2889 1.57993 67.0312 4.53065C71.7736 7.48598 75.4632 11.0601 78.1091 15.2576L86.7396 2.89599L88.6052 2.6651L88.8407 57.7082H87.206C87.206 55.3762 87.049 52.3424 86.7396 48.6113C86.4256 44.8802 85.8068 40.9551 84.8741 36.8315C83.9413 32.7125 82.6206 28.552 80.9075 24.3545C79.1943 20.157 76.9778 16.3889 74.2626 13.0411C71.5381 9.69786 68.2365 7.01497 64.3484 4.99242C60.4602 2.97448 55.7964 1.95858 50.3567 1.95858C41.4953 1.95858 35.3122 4.29053 31.812 8.95442C28.3164 13.6183 26.5663 19.9168 26.5663 27.8455C26.5663 31.1102 27.1481 34.3749 28.3164 37.6396C29.48 40.9043 31.0731 44.0167 33.0957 46.9674C35.1136 49.9227 37.4871 52.6472 40.2116 55.1315C42.9314 57.6204 45.7667 59.7215 48.7266 61.4301L57.8235 66.5603L57.8374 66.5788Z" fill="#DC0000"/>
</svg>
