<svg width="761" height="1918" viewBox="0 0 761 1918" fill="none" xmlns="http://www.w3.org/2000/svg">
<g clip-path="url(#clip0_266_160)">
<path d="M437.854 928C437.854 956.257 456.674 981.009 483.853 988.668C643.774 1033.74 761 1180.78 761 1355.23V1918H0V1355.23C0 1180.78 117.226 1033.74 277.147 988.668C304.326 981.009 323.146 956.262 323.146 928C323.146 899.743 304.326 874.991 277.147 867.332C117.226 822.268 0 675.215 0 500.767V-62H761V500.767C761 675.215 643.774 822.264 483.853 867.332C456.674 874.991 437.854 899.738 437.854 928Z" fill="black"/>
</g>
<path d="M141.192 533.015H138.532V530.619C138.532 522.104 137.377 513.501 135.073 504.806C132.764 496.115 129.038 488.662 123.898 482.451C119.816 477.838 115.337 474.297 110.461 471.808C105.58 469.323 100.482 468.081 95.1623 468.081C88.4159 468.081 82.6945 469.771 77.9983 473.138C73.2975 476.508 69.3909 480.854 66.2878 486.178C63.1801 491.502 60.7835 497.533 59.1027 504.275C57.4126 511.017 56.2166 517.758 55.5101 524.5C54.799 531.242 54.3557 537.675 54.1802 543.793C54.0001 549.916 53.917 555.102 53.917 559.359C53.917 563.266 54.0924 568.235 54.448 574.261C54.8036 580.296 55.5563 586.682 56.7107 593.424C57.8651 600.166 59.4582 606.908 61.4992 613.645C63.5357 620.387 66.1954 626.418 69.4833 631.742C72.7618 637.066 76.7562 641.411 81.457 644.782C86.1532 648.153 91.7914 649.839 98.3532 649.839C106.337 649.839 112.991 647.89 118.311 643.984C123.635 640.082 127.893 635.159 131.083 629.216C134.279 623.273 136.542 616.753 137.867 609.656C139.197 602.563 139.862 595.733 139.862 589.167V586.239H142.258V649.045L140.397 648.777L130.017 635.469C125.404 641.679 120.26 646.025 114.584 648.509C108.905 650.993 102.251 652.235 94.6267 652.235C80.0763 652.235 67.8809 649.483 58.036 643.988C48.191 638.488 40.2486 631.396 34.2178 622.701C28.1871 614.01 23.925 604.299 21.4452 593.563C18.9609 582.831 17.7188 572.234 17.7188 561.761C17.7188 551.288 18.8732 540.431 21.1774 529.16C23.4817 517.897 27.4714 507.563 33.1511 498.156C38.8263 488.755 46.5425 481.038 56.2997 475.003C66.0523 468.972 78.4739 465.957 93.5554 465.957C106.864 465.957 117.858 471.637 126.554 482.987L139.058 469.148L141.187 468.885V533.015H141.192Z" fill="#EE2326"/>
<path d="M196.043 513.446C204.438 513.446 211.513 515.215 217.257 518.747C223.002 522.284 227.642 526.703 231.179 532.005C234.717 537.306 237.293 543.161 238.914 549.57C240.535 555.98 241.343 562.057 241.343 567.801C241.343 573.545 240.604 579.881 239.131 586.364C237.658 592.848 235.188 598.777 231.729 604.152C228.266 609.531 223.625 613.987 217.807 617.52C211.984 621.057 204.734 622.821 196.039 622.821C187.344 622.821 180.311 621.089 174.492 617.626C168.674 614.167 163.996 609.748 160.459 604.369C156.922 598.994 154.419 593.065 152.946 586.581C151.473 580.098 150.734 573.841 150.734 567.801C150.734 561.761 151.542 555.98 153.163 549.57C154.784 543.161 157.398 537.273 161.009 531.894C164.615 526.519 169.298 522.1 175.042 518.636C180.786 515.178 187.782 513.441 196.034 513.441L196.043 513.446ZM200.684 621.062C203.482 620.914 205.731 619.736 207.426 617.525C209.116 615.313 210.441 612.519 211.402 609.13C212.358 605.745 213.023 601.986 213.392 597.862C213.757 593.739 213.946 589.726 213.946 585.819C213.946 581.913 213.835 578.274 213.614 574.88C213.392 571.495 213.207 568.914 213.06 567.145C212.912 565.377 212.653 562.837 212.284 559.522C211.914 556.206 211.402 552.6 210.737 548.693C210.072 544.791 209.19 540.848 208.086 536.872C206.983 532.896 205.657 529.248 204.11 525.932C202.564 522.617 200.721 519.966 198.588 517.976C196.45 515.986 194.058 515.067 191.407 515.215C188.757 515.362 186.545 516.54 184.776 518.752C183.008 520.964 181.645 523.762 180.689 527.147C179.729 530.536 179.069 534.295 178.699 538.414C178.33 542.542 178.145 546.555 178.145 550.457C178.145 554.359 178.256 558.007 178.478 561.396C178.699 564.786 178.884 567.362 179.032 569.131C179.175 570.9 179.438 573.439 179.803 576.755C180.168 580.07 180.685 583.681 181.35 587.583C182.015 591.49 182.897 595.466 184 599.515C185.104 603.57 186.429 607.213 187.976 610.455C189.523 613.696 191.324 616.31 193.388 618.3C195.448 620.291 197.881 621.209 200.68 621.062H200.684Z" fill="#EE2326"/>
<path d="M417.687 469.968C413.605 469.968 410.368 470.277 407.976 470.901C405.58 471.524 404.384 473.344 404.384 476.354V670.621C404.384 674.172 405.316 676.209 407.177 676.74C409.038 677.271 411.92 677.539 415.826 677.539H421.414V679.136H341.583V677.539H356.484C358.082 677.539 359.633 677.497 361.143 677.405C362.649 677.317 364.025 677.095 365.267 676.74C366.505 676.389 367.53 675.719 368.328 674.745C369.127 673.771 369.524 672.395 369.524 670.621L369.792 477.689L322.692 662.213H308.054L254.036 472.101V637.886C254.036 640.195 254.567 641.927 255.633 643.077C256.7 644.231 258.071 645.03 259.757 645.473C261.442 645.917 263.483 646.138 265.875 646.138H281.71V647.736H229.82V646.138H238.603C242.505 646.138 245.696 645.834 248.185 645.206C250.669 644.587 251.911 642.144 251.911 637.886L252.179 477.158C252.179 473.792 251.02 471.746 248.721 471.035C246.412 470.328 243.489 469.973 239.938 469.973H233.02V468.375H288.373L331.216 622.56L370.069 468.375H421.695V469.973H417.701L417.687 469.968Z" fill="#EE2326"/>
<path d="M413.079 690.126C416.981 690.126 419.862 689.863 421.728 689.327C423.589 688.796 424.522 686.76 424.522 683.209V578.895C424.522 575.529 423.63 572.823 421.862 570.781C420.089 568.745 416.981 567.9 412.548 568.251L411.481 568.519V566.921L458.314 563.462V683.213C458.314 686.764 459.247 688.801 461.108 689.332C462.969 689.863 465.762 690.131 469.489 690.131H471.35V691.729H411.477V690.131H413.074L413.079 690.126ZM458.85 519.285C458.85 524.609 456.989 529.088 453.262 532.722C449.536 536.361 445.103 538.176 439.954 538.176C434.805 538.176 430.418 536.361 426.78 532.722C423.141 529.088 421.326 524.604 421.326 519.285C421.326 513.965 423.141 509.749 426.78 506.11C430.418 502.472 434.805 500.652 439.954 500.652C445.103 500.652 449.536 502.472 453.262 506.11C456.989 509.749 458.85 514.141 458.85 519.285Z" fill="#EE2326"/>
<path d="M585.909 600.586V602.184H525.768V600.586H528.696C531.711 600.586 534.191 600.323 536.149 599.787C538.097 599.256 539.076 597.22 539.076 593.669L539.607 520.755C539.607 518.982 539.561 516.101 539.473 512.106C539.381 508.112 538.942 504.122 538.144 500.133C537.345 496.138 536.056 492.638 534.283 489.623C532.505 486.607 530.026 485.097 526.83 485.097C524.701 485.097 522.526 485.587 520.31 486.561C518.089 487.54 516.052 488.736 514.191 490.154C512.331 491.576 510.553 493.128 508.867 494.813C507.177 496.499 505.806 498.05 504.744 499.468V612.56C504.744 616.111 505.718 618.147 507.671 618.679C509.62 619.21 512.197 619.477 515.388 619.477H518.315V621.075H457.906V619.477H458.973C462.875 619.477 465.849 619.214 467.89 618.679C469.926 618.147 470.951 616.111 470.951 612.56V489.355C470.951 485.989 470.06 483.283 468.291 481.242C466.518 479.205 463.411 478.36 458.978 478.711L457.911 478.979V477.381L504.748 473.923V496.009C508.65 490.509 513.439 485.458 519.119 480.84C524.794 476.227 531.799 473.918 540.143 473.918C546.885 473.918 552.385 475.428 556.642 478.443C560.9 481.463 564.224 485.185 566.621 489.618C569.018 494.056 570.652 498.844 571.543 503.988C572.43 509.137 572.873 513.926 572.873 518.359L573.141 593.669C573.141 597.22 574.115 599.256 576.069 599.787C578.017 600.319 581.033 600.586 585.115 600.586H585.914H585.909Z" fill="#EE2326"/>
<path d="M651.289 598.059H728.46V599.656H723.934C720.028 599.656 717.192 599.924 715.419 600.455C713.641 600.986 712.759 603.032 712.759 606.578L712.492 673.637C704.863 679.136 697.101 683.131 689.209 685.61C681.313 688.095 672.313 689.337 662.2 689.337C647.474 689.337 635.191 686.585 625.346 681.09C615.501 675.59 607.605 668.497 601.662 659.802C595.714 651.112 591.503 641.401 589.023 630.664C586.534 619.933 585.297 609.335 585.297 598.862C585.297 588.389 586.493 577.533 588.889 566.261C591.286 554.999 595.451 544.664 601.394 535.258C607.337 525.856 615.363 518.14 625.476 512.105C635.588 506.074 648.361 503.059 663.793 503.059C669.469 503.059 675.236 504.435 681.091 507.182C686.947 509.934 692.091 514.146 696.524 519.821L708.765 506.249L710.894 505.986V570.117H708.234V567.189C708.234 558.143 707.075 549.804 704.776 542.175C702.467 534.551 699.322 527.985 695.328 522.485C691.338 516.986 686.679 512.733 681.359 509.713C676.035 506.697 670.36 505.187 664.329 505.187C657.407 505.187 651.556 506.877 646.763 510.244C641.975 513.615 637.98 517.96 634.789 523.284C631.599 528.608 629.11 534.639 627.337 541.381C625.563 548.123 624.229 554.865 623.347 561.607C622.456 568.348 621.925 574.781 621.749 580.899C621.569 587.022 621.486 592.208 621.486 596.466C621.486 600.372 621.749 605.295 622.285 611.233C622.816 617.181 623.702 623.521 624.945 630.263C626.182 637.004 627.914 643.746 630.135 650.484C632.351 657.23 635.233 663.302 638.784 668.714C642.33 674.126 646.5 678.518 651.289 681.889C656.077 685.26 661.752 686.945 668.319 686.945C670.623 686.945 672.53 686.719 674.04 686.28C675.545 685.841 677.365 685.079 679.494 684.017L679.226 606.578C679.226 603.032 677.937 600.991 675.365 600.455C672.793 599.924 669.995 599.656 666.984 599.656H651.284V598.059H651.289Z" fill="#EE2326"/>
<path d="M211.837 713.579C218.053 716.844 223.382 720.15 227.815 723.493C232.248 726.841 235.896 730.489 238.777 734.455C241.654 738.422 243.792 742.777 245.191 747.514C246.59 752.257 247.288 757.659 247.288 763.723C247.288 770.566 246.119 776.823 243.787 782.498C241.455 788.178 238.075 793.073 233.642 797.192C229.209 801.315 223.806 804.538 217.429 806.87C211.052 809.202 203.821 810.371 195.74 810.371C183.3 810.371 173.118 805.24 165.185 794.975L156.323 807.572L154.689 807.337L154.453 752.525H155.852C155.852 758.588 156.513 764.886 157.833 771.416C159.154 777.945 161.334 783.976 164.363 789.489C167.397 795.012 171.395 799.561 176.373 803.135C181.347 806.713 187.488 808.5 194.798 808.5C199.462 808.5 203.622 807.762 207.275 806.284C210.928 804.806 213.962 802.784 216.372 800.221C218.782 797.653 220.648 794.624 221.969 791.124C223.289 787.624 223.95 783.934 223.95 780.046C223.95 775.539 223.368 771.614 222.2 768.266C221.031 764.923 219.475 762.051 217.536 759.636C215.592 757.225 213.223 755.05 210.42 753.106C207.621 751.162 204.588 749.338 201.323 747.625L192.928 742.961C187.174 739.697 182.044 736.316 177.532 732.816C173.021 729.321 169.29 725.553 166.339 721.503C163.384 717.462 161.126 712.951 159.574 707.973C158.018 703 157.242 697.398 157.242 691.178C157.242 684.958 158.133 679.168 159.925 673.802C161.712 668.436 164.474 663.772 168.205 659.81C171.936 655.844 176.72 652.736 182.547 650.478C188.379 648.224 195.338 647.098 203.424 647.098C210.42 647.098 216.289 648.58 221.031 651.531C225.774 654.486 229.463 658.06 232.109 662.258L240.74 649.896L242.605 649.665L242.841 704.708H241.206C241.206 702.376 241.049 699.342 240.74 695.611C240.426 691.88 239.807 687.955 238.874 683.832C237.941 679.713 236.621 675.552 234.907 671.354C233.194 667.157 230.978 663.389 228.263 660.041C225.538 656.698 222.236 654.015 218.348 651.992C214.46 649.974 209.796 648.959 204.357 648.959C195.495 648.959 189.312 651.291 185.812 655.954C182.316 660.618 180.566 666.917 180.566 674.845C180.566 678.11 181.148 681.375 182.316 684.64C183.48 687.904 185.073 691.017 187.096 693.967C189.114 696.923 191.487 699.647 194.212 702.132C196.931 704.62 199.767 706.722 202.727 708.43L211.824 713.56L211.837 713.579Z" fill="#EE2326"/>
<path d="M415.206 756.92C424.053 755.198 431.862 755.613 438.641 758.162C445.419 760.711 451.215 764.414 456.022 769.277C460.833 774.139 464.745 779.782 467.769 786.201C470.789 792.619 472.886 798.853 474.063 804.907C475.268 811.113 475.758 817.786 475.536 824.916C475.31 832.05 473.925 838.801 471.38 845.174C468.831 851.551 464.855 857.193 459.453 862.111C454.045 867.029 446.763 870.377 437.611 872.155C428.606 873.905 420.687 873.549 413.848 871.097C407.009 868.645 401.177 864.947 396.352 860.006C391.526 855.065 387.67 849.334 384.794 842.805C381.912 836.28 379.857 829.834 378.62 823.47C377.442 817.417 377.05 810.85 377.447 803.767C377.839 796.683 379.386 789.946 382.088 783.536C384.789 777.136 388.811 771.521 394.154 766.696C399.496 761.875 406.511 758.615 415.206 756.925V756.92ZM442.141 869.338C445.059 868.608 447.183 866.909 448.518 864.231C449.848 861.557 450.67 858.339 450.988 854.571C451.302 850.807 451.228 846.716 450.776 842.292C450.319 837.873 449.691 833.606 448.892 829.492C448.093 825.382 447.23 821.563 446.301 818.035C445.373 814.512 444.648 811.834 444.136 810C443.618 808.167 442.824 805.544 441.758 802.127C440.691 798.71 439.407 795.016 437.911 791.036C436.41 787.06 434.674 783.088 432.693 779.126C430.712 775.164 428.569 771.595 426.261 768.418C423.952 765.246 421.467 762.826 418.812 761.168C416.152 759.51 413.442 759.035 410.68 759.727C407.914 760.429 405.832 762.119 404.419 764.812C403.01 767.504 402.147 770.731 401.833 774.495C401.514 778.263 401.588 782.359 402.045 786.773C402.502 791.197 403.13 795.464 403.929 799.574C404.728 803.688 405.592 807.507 406.52 811.03C407.448 814.558 408.168 817.232 408.686 819.065C409.198 820.898 409.992 823.521 411.059 826.938C412.126 830.355 413.409 834.054 414.906 838.03C416.402 842.006 418.152 846.019 420.142 850.059C422.137 854.104 424.28 857.674 426.575 860.768C428.87 863.866 431.303 866.249 433.884 867.925C436.461 869.597 439.213 870.068 442.132 869.338H442.141Z" fill="#EE2326"/>
<path d="M315.915 856.969C308.55 856.969 302.016 855.777 296.313 853.395C290.606 851.012 285.628 847.872 281.37 843.974C277.108 840.077 273.534 835.529 270.648 830.329C267.757 825.13 265.449 819.718 263.717 814.084C261.985 808.45 260.72 802.789 259.926 797.082C259.132 791.379 258.734 786.073 258.734 781.164C258.734 773.799 259.635 765.681 261.44 756.797C263.246 747.917 266.312 739.688 270.643 732.106C274.975 724.524 280.826 718.174 288.186 713.044C295.551 707.923 304.787 705.355 315.906 705.355C327.026 705.355 336.266 707.923 343.631 713.044C350.996 718.17 356.842 724.524 361.174 732.106C365.505 739.684 368.571 747.917 370.377 756.797C372.182 765.677 373.083 773.799 373.083 781.164C373.083 786.073 372.723 791.383 372.002 797.082C371.277 802.789 370.017 808.45 368.211 814.084C366.405 819.713 364.097 825.097 361.28 830.218C358.463 835.344 354.926 839.892 350.668 843.864C346.406 847.835 341.428 851.012 335.725 853.395C330.018 855.777 323.415 856.969 315.906 856.969H315.915ZM315.915 707.092C311.584 707.092 307.904 708.537 304.87 711.423C301.836 714.314 299.31 718.031 297.288 722.575C295.265 727.123 293.64 732.212 292.416 737.846C291.188 743.479 290.25 749.039 289.599 754.525C288.948 760.015 288.551 765.104 288.408 769.796C288.26 774.492 288.191 778.278 288.191 781.164C288.191 784.198 288.297 788.169 288.514 793.078C288.731 797.987 289.165 803.186 289.812 808.672C290.463 814.163 291.4 819.685 292.628 825.24C293.852 830.8 295.477 835.783 297.5 840.183C299.523 844.589 302.048 848.195 305.082 851.012C308.116 853.829 311.723 855.237 315.911 855.237C320.099 855.237 323.927 853.796 326.956 850.906C329.99 848.02 332.512 844.298 334.539 839.754C336.561 835.205 338.182 830.154 339.41 824.594C340.634 819.039 341.576 813.516 342.227 808.026C342.878 802.54 343.271 797.414 343.419 792.649C343.562 787.883 343.636 784.06 343.636 781.169C343.636 778.135 343.529 774.206 343.312 769.366C343.095 764.531 342.661 759.369 342.015 753.878C341.364 748.392 340.422 742.87 339.198 737.31C337.97 731.755 336.344 726.735 334.326 722.256C332.304 717.782 329.778 714.134 326.744 711.322C323.71 708.505 320.099 707.096 315.915 707.096V707.092Z" fill="#EE2326"/>
<path d="M571.977 829.11V830.412H523.029V829.11H525.412C527.864 829.11 529.887 828.893 531.475 828.459C533.064 828.025 533.858 826.367 533.858 823.477L534.292 721.264C534.292 719.823 534.255 717.473 534.181 714.226C534.107 710.975 533.747 707.729 533.101 704.478C532.454 701.227 531.401 698.378 529.96 695.922C528.515 693.47 526.493 692.241 523.897 692.241C522.166 692.241 520.393 692.643 518.592 693.433C516.786 694.227 515.128 695.201 513.609 696.356C512.095 697.515 510.649 698.775 509.278 700.147C507.902 701.518 506.789 702.784 505.921 703.938V780.61C505.921 783.501 506.71 785.159 508.303 785.593C509.892 786.027 511.984 786.244 514.584 786.244H516.966V787.546H467.801V786.244H468.67C471.842 786.244 474.262 786.027 475.924 785.593C477.582 785.159 478.413 783.501 478.413 780.61V695.709C478.413 692.966 477.688 690.764 476.247 689.106C474.802 687.448 472.276 686.76 468.665 687.046L467.797 687.264V685.961L505.916 683.145V701.121C509.088 696.647 512.99 692.532 517.613 688.778C522.23 685.024 527.933 683.145 534.721 683.145C540.207 683.145 544.686 684.373 548.15 686.825C551.613 689.281 554.323 692.315 556.272 695.922C558.221 699.533 559.555 703.43 560.28 707.618C561.001 711.807 561.361 715.709 561.361 719.315L561.578 823.477C561.578 826.367 562.368 828.025 563.961 828.459C565.549 828.893 568.001 829.11 571.326 829.11H571.977Z" fill="#EE2326"/>
<path d="M699.639 377.653C704.52 376.244 709.064 376.069 713.27 377.122C717.473 378.175 721.319 380.059 724.81 382.765C728.296 385.475 731.437 388.721 734.23 392.513C737.024 396.304 739.508 400.243 741.697 404.334C743.881 408.425 745.705 412.461 747.169 416.446C748.633 420.431 749.783 423.876 750.618 426.781C751.454 429.685 752.313 433.218 753.195 437.364C754.077 441.516 754.719 445.926 755.121 450.594C755.523 455.263 755.559 459.973 755.227 464.724C754.899 469.476 753.948 473.937 752.378 478.102C750.808 482.267 748.554 485.906 745.613 489.018C742.671 492.13 738.7 494.407 733.704 495.848C728.707 497.288 724.251 497.441 719.985 496.402C715.722 495.363 711.844 493.493 708.357 490.782C704.871 488.076 701.722 484.798 698.914 480.946C696.106 477.1 693.608 473.129 691.424 469.037C689.235 464.946 687.402 460.882 685.924 456.837C684.442 452.797 683.288 449.324 682.447 446.415C681.607 443.506 680.739 439.826 679.931 435.716C679.123 431.606 678.522 427.219 678.12 422.551C677.719 417.882 677.691 413.205 678.037 408.508C678.384 403.817 679.349 399.416 680.933 395.306C682.517 391.201 684.812 387.581 687.808 384.45C690.805 381.319 694.749 379.052 699.63 377.644L699.639 377.653ZM733.302 494.453C735.625 493.784 737.232 492.033 738.114 489.198C738.996 486.368 739.388 482.918 739.287 478.855C739.185 474.796 738.742 470.418 737.961 465.736C737.176 461.053 736.281 456.528 735.274 452.16C734.267 447.796 733.288 443.857 732.342 440.352C731.395 436.847 730.689 434.284 730.217 432.654C729.746 431.029 729.022 428.498 728.033 425.072C727.045 421.646 725.812 417.813 724.344 413.579C722.871 409.349 721.222 405.036 719.394 400.658C717.565 396.276 715.616 392.369 713.561 388.934C711.502 385.503 709.304 382.797 706.977 380.825C704.645 378.853 702.317 378.202 699.995 378.872C697.672 379.541 696.07 381.296 695.183 384.127C694.301 386.962 693.872 390.388 693.899 394.41C693.927 398.432 694.329 402.782 695.114 407.465C695.899 412.147 696.79 416.677 697.801 421.041C698.808 425.409 699.782 429.343 700.733 432.848C701.68 436.353 702.387 438.916 702.858 440.546C703.329 442.176 704.09 444.72 705.157 448.193C706.219 451.661 707.48 455.484 708.934 459.659C710.389 463.838 712.042 468.141 713.885 472.579C715.732 477.021 717.713 480.946 719.832 484.363C721.952 487.781 724.145 490.482 726.417 492.472C728.689 494.462 730.984 495.118 733.311 494.449L733.302 494.453Z" fill="white"/>
<path d="M293.878 472.944C298.32 468.391 302.988 463.289 307.888 457.651C312.782 452.012 317.34 446.06 321.556 439.794C325.767 433.528 329.245 427.063 331.978 420.4C334.712 413.736 336.079 407.101 336.079 400.493C336.079 398.442 335.908 395.995 335.566 393.146C335.225 390.301 334.481 387.591 333.345 385.028C332.205 382.465 330.639 380.304 328.644 378.535C326.649 376.771 323.999 375.885 320.697 375.885C317.733 375.885 315.313 376.254 313.434 376.998C311.554 377.741 310.044 378.508 308.904 379.307C309.698 381.472 310.469 384.206 311.212 387.508C311.951 390.814 312.265 394.06 312.154 397.246C312.039 400.437 311.24 403.171 309.763 405.447C308.28 407.729 305.662 408.865 301.903 408.865C299.622 408.865 297.803 408.07 296.436 406.473C295.069 404.879 294.099 403.286 293.531 401.689C293.758 397.704 294.667 393.972 296.265 390.495C297.858 387.023 300.079 384.031 302.928 381.523C305.773 379.02 309.167 377.053 313.096 375.626C317.026 374.204 321.441 373.488 326.34 373.488C331.807 373.488 336.421 374.315 340.179 375.968C343.938 377.621 346.986 379.842 349.322 382.631C351.654 385.425 353.34 388.644 354.365 392.287C355.39 395.935 355.903 399.749 355.903 403.734C355.903 410.684 354.166 417.209 350.689 423.299C347.212 429.395 343.028 435.176 338.129 440.644C333.798 445.428 328.219 450.212 321.381 455C314.546 459.784 307.537 464.568 300.361 469.357H357.948V487.13H293.868V472.944H293.878Z" fill="white"/>
<path d="M160.386 398.262C160.806 394.055 161.785 389.955 163.332 385.956C164.875 381.961 167.045 378.457 169.853 375.441C172.656 372.426 176.128 370.011 180.266 368.187C184.398 366.367 189.344 365.453 195.093 365.453C201.401 365.453 206.942 366.33 211.708 368.081C216.473 369.835 220.435 372.287 223.589 375.441C226.743 378.595 229.125 382.275 230.742 386.482C232.353 390.689 233.161 395.247 233.161 400.155C233.161 403.803 232.496 407.59 231.162 411.515C229.827 415.44 227.726 419.055 224.854 422.348C221.977 425.645 218.26 428.416 213.707 430.655C209.149 432.899 203.645 434.229 197.194 434.649C204.485 435.213 210.618 436.543 215.6 438.644C220.578 440.745 224.646 443.377 227.8 446.531C230.954 449.685 233.231 453.227 234.634 457.152C236.034 461.077 236.735 465.219 236.735 469.559C236.735 475.17 235.715 480.36 233.688 485.126C231.651 489.896 228.779 493.959 225.067 497.326C221.349 500.692 216.829 503.319 211.5 505.213C206.171 507.106 200.14 508.053 193.412 508.053C186.684 508.053 181.457 507.175 176.899 505.425C172.342 503.675 168.518 501.292 165.438 498.272C162.353 495.257 160.003 491.646 158.391 487.439C156.78 483.232 155.764 478.679 155.344 473.766C155.764 471.804 156.78 469.841 158.391 467.879C160.003 465.916 162.21 464.932 165.018 464.932C169.225 464.932 172.378 466.442 174.484 469.453C176.585 472.469 177.989 476.047 178.691 480.18C179.393 484.318 179.564 488.561 179.217 492.907C178.866 497.256 178.483 500.687 178.063 503.213C180.025 504.335 182.196 504.894 184.583 504.894C189.63 504.894 193.763 503.67 196.991 501.214C200.214 498.762 202.74 495.677 204.564 491.96C206.383 488.247 207.649 484.248 208.35 479.972C209.052 475.696 209.403 471.739 209.403 468.091C209.403 464.725 209.191 461.187 208.771 457.47C208.35 453.758 207.404 450.317 205.931 447.163C204.458 444.01 202.32 441.414 199.517 439.383C196.709 437.351 192.997 436.335 188.37 436.335H182.69V433.601H187.737C192.082 433.601 195.587 432.41 198.251 430.027C200.911 427.644 202.948 424.629 204.351 420.981C205.751 417.338 206.697 413.302 207.191 408.887C207.681 404.468 207.926 400.229 207.926 396.161C207.926 392.795 207.612 389.465 206.979 386.168C206.346 382.876 205.224 379.962 203.613 377.441C202.001 374.915 199.895 372.888 197.305 371.341C194.71 369.798 191.45 369.027 187.525 369.027C185.982 369.027 184.403 369.203 182.791 369.554C181.18 369.905 179.67 370.643 178.271 371.761C178.973 374.568 179.67 377.898 180.376 381.754C181.078 385.614 181.323 389.257 181.111 392.688C180.898 396.124 179.956 399.07 178.271 401.522C176.59 403.979 173.713 405.202 169.649 405.202C167.405 405.202 165.475 404.431 163.863 402.889C162.252 401.347 161.093 399.804 160.391 398.262H160.386Z" fill="white"/>
<path d="M169.935 318.958L186.166 329.01L132.333 415.916L148.975 426.223L135.741 447.589L119.099 437.282L101.662 465.427L79.0633 451.426L96.4997 423.281L50.8906 395.03L61.7099 377.566L169.94 318.953L169.935 318.958ZM154.914 328.983L68.0269 376.083L109.734 401.92L154.914 328.983Z" fill="white"/>
<path d="M41.6979 460.491C41.6979 462.772 42.5799 464.079 44.3485 464.421C46.1124 464.762 48.0242 464.933 50.0744 464.933H60.6675V465.958H0V464.933H10.9347C11.9599 464.933 12.9573 464.905 13.927 464.85C14.8921 464.795 15.7787 464.651 16.5776 464.421C17.3718 464.194 18.0322 463.765 18.5447 463.137C19.0573 462.513 19.3159 461.627 19.3159 460.486V360.688L5.64284 364.618L4.78856 361.884L39.1351 352.316H41.6979V460.486V460.491Z" fill="white"/>
<path d="M377.807 445.016C382.826 448.253 387.929 449.768 393.124 449.565C398.314 449.357 403.412 447.962 408.422 445.381C413.428 442.795 418.203 439.147 422.751 434.433C427.295 429.723 431.483 424.398 435.311 418.469C438.059 414.212 440.358 409.557 442.215 404.51C444.066 399.463 444.995 394.351 444.995 389.184C444.99 384.012 443.822 379.057 441.494 374.328C439.162 369.595 435.26 365.463 429.784 361.93C425.369 359.085 421.006 357.511 416.683 357.197C412.361 356.887 408.224 357.289 404.276 358.402L403.186 356.084L454.733 283.688L524.996 329.01L508.664 354.334L438.858 309.307L405.97 355.285C419.066 351.674 431.853 353.891 444.325 361.935C452.54 367.231 458.825 373.012 463.188 379.269C467.547 385.531 470.304 391.936 471.463 398.498C472.613 405.055 472.299 411.635 470.521 418.243C468.734 424.846 465.834 431.265 461.812 437.503C457.398 444.347 452.267 449.874 446.44 454.076C440.603 458.283 434.231 461.063 427.327 462.421C420.419 463.778 413.072 463.561 405.292 461.774C397.506 459.982 389.513 456.441 381.298 451.144C374.912 447.025 369.897 442.44 366.258 437.402C362.615 432.359 360.153 427.164 358.87 421.812C357.581 416.46 357.526 411.039 358.699 405.549C359.867 400.058 361.922 394.706 364.854 389.493C367.085 387.701 369.712 386.381 372.737 385.536C375.757 384.686 378.791 385.24 381.834 387.207C385.939 389.858 388.026 393.464 388.095 398.031C388.164 402.598 387.195 407.359 385.186 412.309C383.173 417.259 380.624 421.965 377.53 426.43C374.436 430.895 371.776 434.349 369.555 436.792C371.254 439.826 374.007 442.574 377.812 445.026L377.807 445.016Z" fill="white"/>
<path d="M606.219 515.199C598.064 515.199 591.401 513.481 586.224 510.055C581.048 506.629 576.971 502.293 573.997 497.052C571.018 491.81 568.982 486.117 567.883 479.971C566.784 473.824 566.234 467.969 566.234 462.405C566.234 453.474 567.786 444.581 570.894 435.715C574.001 426.853 578.559 418.763 584.581 411.448C590.597 404.139 598.004 397.956 606.806 392.908C615.602 387.861 625.761 384.754 637.282 383.59L637.476 384.366C630.49 386.18 624.404 389.316 619.232 393.781C614.055 398.246 609.622 403.326 605.933 409.02C602.243 414.718 599.265 420.762 597.002 427.167C594.735 433.572 593.022 439.626 591.858 445.315C594.444 442.207 597.875 439.556 602.146 437.354C606.418 435.156 610.883 434.052 615.542 434.052C621.365 434.052 626.121 435.248 629.811 437.645C633.501 440.041 636.41 443.047 638.548 446.672C640.681 450.297 642.168 454.278 643.013 458.609C643.853 462.945 644.274 467.055 644.274 470.934C644.274 475.722 643.595 480.737 642.237 485.978C640.88 491.219 638.677 496.008 635.638 500.344C632.595 504.68 628.68 508.24 623.896 511.02C619.107 513.8 613.22 515.195 606.233 515.195L606.219 515.199ZM591.853 447.841C591.724 449.004 591.59 450.528 591.466 452.403C591.336 454.282 591.239 456.319 591.175 458.517C591.11 460.719 591.078 462.95 591.078 465.212V471.326C591.078 473.4 591.175 476.729 591.369 481.324C591.562 485.918 592.144 490.61 593.114 495.398C594.084 500.187 595.538 504.394 597.482 508.014C599.422 511.639 602.206 513.449 605.831 513.449C609.193 513.449 611.848 512.027 613.792 509.178C615.732 506.333 617.154 502.902 618.064 498.889C618.969 494.881 619.518 490.675 619.712 486.274C619.906 481.878 620.003 478.188 620.003 475.21C620.003 473.4 619.874 470.551 619.615 466.667C619.356 462.784 618.742 458.905 617.773 455.021C616.803 451.138 615.376 447.711 613.501 444.733C611.622 441.759 609.068 440.268 605.836 440.268C602.603 440.268 600.041 441.076 597.778 442.692C595.511 444.313 593.539 446.026 591.858 447.836L591.853 447.841Z" fill="white"/>
<path d="M551.584 356.957V368.917L517.75 468.373H493.484L546.971 376.097H488.188V356.957H551.584Z" fill="white"/>
<path d="M237.246 400.181C237.246 397.165 237.74 394.256 238.733 391.453C239.721 388.655 241.208 386.134 243.194 383.889C245.175 381.65 247.654 379.863 250.628 378.524C253.602 377.189 257.07 376.52 261.037 376.52C268.018 376.52 273.403 378.288 277.198 381.821C280.99 385.358 282.888 389.966 282.888 395.655C282.888 400.051 281.659 403.782 279.203 406.839C276.746 409.901 273.361 412.552 269.053 414.791C274.396 417.894 278.427 421.538 281.142 425.717C283.857 429.9 285.215 434.79 285.215 440.392C285.215 443.841 284.675 447.032 283.599 449.96C282.518 452.892 280.883 455.413 278.685 457.523C276.487 459.638 273.749 461.273 270.475 462.437C267.197 463.6 263.318 464.182 258.838 464.182C251.164 464.182 245.433 462.46 241.642 459.01C237.846 455.565 235.953 450.735 235.953 444.529C235.953 439.874 237.246 435.825 239.832 432.375C242.418 428.931 246.038 425.957 250.693 423.454C241.725 417.682 237.246 409.924 237.246 400.181ZM251.339 423.842C248.236 426.345 246.103 428.972 244.939 431.729C243.776 434.49 243.194 438.152 243.194 442.719C243.194 445.134 243.558 447.568 244.293 450.024C245.022 452.481 246.08 454.702 247.46 456.683C248.837 458.669 250.517 460.262 252.503 461.467C254.484 462.672 256.682 463.277 259.097 463.277C261.078 463.277 262.824 462.825 264.334 461.919C265.839 461.014 267.067 459.874 268.018 458.493C268.965 457.117 269.676 455.565 270.152 453.838C270.623 452.116 270.863 450.477 270.863 448.925C270.863 446.339 270.281 443.818 269.117 441.361C267.954 438.905 266.421 436.624 264.527 434.509C262.63 432.398 260.519 430.436 258.192 428.626C255.865 426.816 253.579 425.223 251.339 423.842ZM250.693 391.389C250.693 393.891 251.229 396.26 252.309 398.5C253.385 400.744 254.766 402.813 256.447 404.706C258.127 406.604 260.021 408.349 262.136 409.943C264.246 411.54 266.291 412.981 268.277 414.274C269.912 413.327 271.528 411.559 273.126 408.973C274.719 406.387 275.518 402.683 275.518 397.853C275.518 395.872 275.301 393.697 274.871 391.324C274.437 388.955 273.684 386.734 272.608 384.665C271.528 382.596 270.087 380.874 268.277 379.493C266.467 378.117 264.14 377.425 261.295 377.425C259.309 377.425 257.629 377.859 256.253 378.718C254.872 379.581 253.773 380.68 252.956 382.015C252.134 383.354 251.552 384.859 251.21 386.54C250.864 388.221 250.693 389.837 250.693 391.389Z" fill="white"/>
<path d="M691.945 298.297C696.623 306.498 698.719 314.191 698.239 321.367C697.754 328.543 695.736 335.128 692.171 341.136C688.606 347.139 684.044 352.454 678.493 357.09C672.938 361.721 667.36 365.637 661.764 368.828C652.777 373.949 642.932 377.495 632.233 379.453C621.529 381.416 610.775 381.467 599.969 379.606C589.159 377.745 578.691 373.838 568.564 367.877C558.438 361.915 549.484 353.479 541.703 342.558L542.373 341.916C548.205 347.91 554.85 352.227 562.317 354.873C569.779 357.519 577.43 359.066 585.276 359.51C593.121 359.953 600.916 359.477 608.66 358.078C616.404 356.679 623.473 354.938 629.874 352.842C625.261 352.02 620.624 350.089 615.965 347.056C611.301 344.022 607.635 340.161 604.961 335.474C601.618 329.614 600.094 324.142 600.39 319.058C600.68 313.974 602.038 309.32 604.458 305.09C606.877 300.865 610.027 297.083 613.906 293.749C617.784 290.415 621.677 287.635 625.584 285.405C630.4 282.657 635.835 280.464 641.889 278.824C647.943 277.185 654.02 276.649 660.129 277.222C666.233 277.795 672.061 279.692 677.611 282.911C683.157 286.13 687.937 291.26 691.945 298.288V298.297ZM656.49 338.702C657.922 337.885 659.921 336.703 662.488 335.151C665.051 333.6 667.808 331.771 670.75 329.665C673.686 327.555 676.619 325.283 679.542 322.84C682.46 320.398 684.972 317.844 687.078 315.18C689.179 312.51 690.615 309.883 691.382 307.292C692.143 304.697 691.82 302.162 690.412 299.692C688.482 296.302 685.526 294.455 681.55 294.132C677.57 293.813 673.303 294.349 668.75 295.739C664.192 297.129 659.644 298.99 655.109 301.317C650.57 303.649 646.802 305.667 643.81 307.371C641.986 308.41 639.197 310.174 635.438 312.663C631.679 315.152 628.128 317.996 624.776 321.201C621.428 324.406 618.791 327.804 616.875 331.402C614.954 334.994 614.926 338.42 616.782 341.676C618.565 344.802 620.915 347.037 623.848 348.39C626.771 349.738 629.629 350.74 632.418 351.396C633.665 350.856 635.267 350.117 637.23 349.17C639.188 348.224 641.293 347.153 643.551 345.957C645.8 344.761 648.067 343.514 650.344 342.212C652.62 340.909 654.671 339.746 656.495 338.702H656.49Z" fill="white"/>
<path d="M344.456 914.048C344.04 914.048 343.64 913.981 343.256 913.848C342.877 913.709 342.584 913.533 342.376 913.32L342.608 912.864C342.805 913.056 343.069 913.219 343.4 913.352C343.736 913.48 344.088 913.544 344.456 913.544C344.808 913.544 345.093 913.501 345.312 913.416C345.536 913.325 345.699 913.205 345.8 913.056C345.907 912.907 345.96 912.741 345.96 912.56C345.96 912.341 345.896 912.165 345.768 912.032C345.645 911.899 345.483 911.795 345.28 911.72C345.077 911.64 344.853 911.571 344.608 911.512C344.363 911.453 344.117 911.392 343.872 911.328C343.627 911.259 343.4 911.168 343.192 911.056C342.989 910.944 342.824 910.797 342.696 910.616C342.573 910.429 342.512 910.187 342.512 909.888C342.512 909.611 342.584 909.357 342.728 909.128C342.877 908.893 343.104 908.707 343.408 908.568C343.712 908.424 344.101 908.352 344.576 908.352C344.891 908.352 345.203 908.397 345.512 908.488C345.821 908.573 346.088 908.693 346.312 908.848L346.112 909.32C345.872 909.16 345.616 909.043 345.344 908.968C345.077 908.893 344.819 908.856 344.568 908.856C344.232 908.856 343.955 908.901 343.736 908.992C343.517 909.083 343.355 909.205 343.248 909.36C343.147 909.509 343.096 909.68 343.096 909.872C343.096 910.091 343.157 910.267 343.28 910.4C343.408 910.533 343.573 910.637 343.776 910.712C343.984 910.787 344.211 910.853 344.456 910.912C344.701 910.971 344.944 911.035 345.184 911.104C345.429 911.173 345.653 911.264 345.856 911.376C346.064 911.483 346.229 911.627 346.352 911.808C346.48 911.989 346.544 912.227 346.544 912.52C346.544 912.792 346.469 913.045 346.32 913.28C346.171 913.509 345.941 913.696 345.632 913.84C345.328 913.979 344.936 914.048 344.456 914.048ZM351.706 914.048C351.285 914.048 350.895 913.979 350.538 913.84C350.181 913.696 349.871 913.496 349.61 913.24C349.349 912.984 349.143 912.683 348.994 912.336C348.85 911.989 348.778 911.611 348.778 911.2C348.778 910.789 348.85 910.411 348.994 910.064C349.143 909.717 349.349 909.416 349.61 909.16C349.877 908.904 350.189 908.707 350.546 908.568C350.903 908.424 351.293 908.352 351.714 908.352C352.119 908.352 352.501 908.421 352.858 908.56C353.215 908.693 353.517 908.896 353.762 909.168L353.386 909.544C353.157 909.309 352.903 909.141 352.626 909.04C352.349 908.933 352.05 908.88 351.73 908.88C351.394 908.88 351.082 908.939 350.794 909.056C350.506 909.168 350.255 909.331 350.042 909.544C349.829 909.752 349.661 909.997 349.538 910.28C349.421 910.557 349.362 910.864 349.362 911.2C349.362 911.536 349.421 911.845 349.538 912.128C349.661 912.405 349.829 912.651 350.042 912.864C350.255 913.072 350.506 913.235 350.794 913.352C351.082 913.464 351.394 913.52 351.73 913.52C352.05 913.52 352.349 913.467 352.626 913.36C352.903 913.253 353.157 913.083 353.386 912.848L353.762 913.224C353.517 913.496 353.215 913.701 352.858 913.84C352.501 913.979 352.117 914.048 351.706 914.048ZM356.464 914V908.4H358.56C359.035 908.4 359.443 908.477 359.784 908.632C360.125 908.781 360.387 909 360.568 909.288C360.755 909.571 360.848 909.915 360.848 910.32C360.848 910.715 360.755 911.056 360.568 911.344C360.387 911.627 360.125 911.845 359.784 912C359.443 912.149 359.035 912.224 358.56 912.224H356.792L357.056 911.952V914H356.464ZM360.288 914L358.848 911.968H359.488L360.936 914H360.288ZM357.056 912L356.792 911.72H358.544C359.104 911.72 359.528 911.597 359.816 911.352C360.109 911.107 360.256 910.763 360.256 910.32C360.256 909.872 360.109 909.525 359.816 909.28C359.528 909.035 359.104 908.912 358.544 908.912H356.792L357.056 908.632V912ZM366.133 914.048C365.712 914.048 365.32 913.979 364.957 913.84C364.6 913.696 364.288 913.496 364.021 913.24C363.76 912.979 363.554 912.677 363.405 912.336C363.261 911.989 363.189 911.611 363.189 911.2C363.189 910.789 363.261 910.413 363.405 910.072C363.554 909.725 363.76 909.424 364.021 909.168C364.288 908.907 364.6 908.707 364.957 908.568C365.314 908.424 365.706 908.352 366.133 908.352C366.554 908.352 366.944 908.424 367.301 908.568C367.658 908.707 367.968 908.904 368.229 909.16C368.496 909.416 368.701 909.717 368.845 910.064C368.994 910.411 369.069 910.789 369.069 911.2C369.069 911.611 368.994 911.989 368.845 912.336C368.701 912.683 368.496 912.984 368.229 913.24C367.968 913.496 367.658 913.696 367.301 913.84C366.944 913.979 366.554 914.048 366.133 914.048ZM366.133 913.52C366.469 913.52 366.778 913.464 367.061 913.352C367.349 913.235 367.597 913.072 367.805 912.864C368.018 912.651 368.184 912.405 368.301 912.128C368.418 911.845 368.477 911.536 368.477 911.2C368.477 910.864 368.418 910.557 368.301 910.28C368.184 909.997 368.018 909.752 367.805 909.544C367.597 909.331 367.349 909.168 367.061 909.056C366.778 908.939 366.469 908.88 366.133 908.88C365.797 908.88 365.485 908.939 365.197 909.056C364.909 909.168 364.658 909.331 364.445 909.544C364.237 909.752 364.072 909.997 363.949 910.28C363.832 910.557 363.773 910.864 363.773 911.2C363.773 911.531 363.832 911.837 363.949 912.12C364.072 912.403 364.237 912.651 364.445 912.864C364.658 913.072 364.909 913.235 365.197 913.352C365.485 913.464 365.797 913.52 366.133 913.52ZM371.836 914V908.4H372.428V913.488H375.564V914H371.836ZM377.987 914V908.4H378.579V913.488H381.715V914H377.987ZM387.672 914V908.4H389.952C390.549 908.4 391.072 908.52 391.52 908.76C391.973 908.995 392.325 909.323 392.576 909.744C392.826 910.165 392.952 910.651 392.952 911.2C392.952 911.749 392.826 912.235 392.576 912.656C392.325 913.077 391.973 913.408 391.52 913.648C391.072 913.883 390.549 914 389.952 914H387.672ZM388.264 913.488H389.92C390.416 913.488 390.845 913.392 391.208 913.2C391.576 913.003 391.861 912.733 392.064 912.392C392.266 912.045 392.368 911.648 392.368 911.2C392.368 910.747 392.266 910.349 392.064 910.008C391.861 909.667 391.576 909.4 391.208 909.208C390.845 909.011 390.416 908.912 389.92 908.912H388.264V913.488ZM398.169 914.048C397.748 914.048 397.356 913.979 396.993 913.84C396.636 913.696 396.324 913.496 396.057 913.24C395.796 912.979 395.59 912.677 395.441 912.336C395.297 911.989 395.225 911.611 395.225 911.2C395.225 910.789 395.297 910.413 395.441 910.072C395.59 909.725 395.796 909.424 396.057 909.168C396.324 908.907 396.636 908.707 396.993 908.568C397.35 908.424 397.742 908.352 398.169 908.352C398.59 908.352 398.98 908.424 399.337 908.568C399.694 908.707 400.004 908.904 400.265 909.16C400.532 909.416 400.737 909.717 400.881 910.064C401.03 910.411 401.105 910.789 401.105 911.2C401.105 911.611 401.03 911.989 400.881 912.336C400.737 912.683 400.532 912.984 400.265 913.24C400.004 913.496 399.694 913.696 399.337 913.84C398.98 913.979 398.59 914.048 398.169 914.048ZM398.169 913.52C398.505 913.52 398.814 913.464 399.097 913.352C399.385 913.235 399.633 913.072 399.841 912.864C400.054 912.651 400.22 912.405 400.337 912.128C400.454 911.845 400.513 911.536 400.513 911.2C400.513 910.864 400.454 910.557 400.337 910.28C400.22 909.997 400.054 909.752 399.841 909.544C399.633 909.331 399.385 909.168 399.097 909.056C398.814 908.939 398.505 908.88 398.169 908.88C397.833 908.88 397.521 908.939 397.233 909.056C396.945 909.168 396.694 909.331 396.481 909.544C396.273 909.752 396.108 909.997 395.985 910.28C395.868 910.557 395.809 910.864 395.809 911.2C395.809 911.531 395.868 911.837 395.985 912.12C396.108 912.403 396.273 912.651 396.481 912.864C396.694 913.072 396.945 913.235 397.233 913.352C397.521 913.464 397.833 913.52 398.169 913.52ZM404.98 914L403.092 908.4H403.7L405.468 913.672H405.164L406.988 908.4H407.532L409.332 913.672H409.044L410.828 908.4H411.396L409.508 914H408.884L407.164 909H407.324L405.596 914H404.98ZM413.921 914V908.4H414.409L418.273 913.264H418.017V908.4H418.601V914H418.113L414.257 909.136H414.513V914H413.921Z" fill="white"/>
<path d="M377.771 928.391L380.998 931.617L384.225 928.391" stroke="white" stroke-width="1.29069" stroke-linecap="round" stroke-linejoin="round"/>
<path d="M377.771 923.871L380.998 927.098L384.225 923.871" stroke="white" stroke-width="1.29069" stroke-linecap="round" stroke-linejoin="round"/>
<defs>
<clipPath id="clip0_266_160">
<rect width="761" height="1918" fill="white"/>
</clipPath>
</defs>
</svg>
