<svg width="126" height="43" viewBox="0 0 126 43" fill="none" xmlns="http://www.w3.org/2000/svg">
<path d="M15.1307 35.9078L8.08524 26.4419L4.36309 29.2124L3.04953 27.4475L12.5795 20.3543L13.8931 22.1191L10.1709 24.8896L17.2164 34.3554L15.1307 35.9078Z" fill="white"/>
<path d="M26.4006 27.8945L20.9951 14.9801L26.3084 12.7561C27.4523 12.2774 28.5073 12.0526 29.4735 12.0818C30.452 12.1058 31.3068 12.3696 32.0378 12.873C32.7689 13.3765 33.3326 14.1017 33.7291 15.0487C34.1255 15.9958 34.2464 16.9064 34.0919 17.7805C33.9323 18.6423 33.5177 19.4301 32.8481 20.144C32.1856 20.8405 31.2825 21.4281 30.1386 21.9069L26.1536 23.5749L26.7681 22.0385L28.799 26.8906L26.4006 27.8945ZM34.8503 24.3577L29.6234 21.0385L32.1878 19.9651L37.4331 23.2766L34.8503 24.3577ZM26.8762 22.2968L25.3273 21.6008L29.2016 19.9792C30.2594 19.5364 30.9575 18.9768 31.2959 18.3004C31.6465 17.6188 31.652 16.8721 31.3122 16.0604C30.9673 15.2363 30.4316 14.7161 29.7051 14.4999C28.9909 14.2785 28.1049 14.3891 27.0472 14.8319L23.1729 16.4535L23.7487 14.8249L26.8762 22.2968Z" fill="white"/>
<path d="M48.5085 20.333L47.7216 14.8492L48.523 16.3506L41.0758 7.25613L43.8276 6.86127L49.8086 14.186L48.2644 14.4076L51.9841 5.69093L54.5181 5.32732L49.9286 16.1489L50.2953 14.4799L51.0822 19.9637L48.5085 20.333Z" fill="white"/>
<path d="M72.2429 19.1019L75.8535 5.57547L77.9211 6.12737L81.1984 17.58L80.1162 17.2911L88.5683 8.96938L90.6359 9.52128L87.0447 23.0529L84.6679 22.4184L87.2636 12.6163L87.7661 12.7504L80.6168 19.6811L79.4961 19.3819L76.6744 9.78974L77.2541 9.94448L74.639 19.7415L72.2429 19.1019Z" fill="white"/>
<path d="M100.877 20.4791L106.843 24.0631L105.741 25.8976L99.7751 22.3136L100.877 20.4791ZM97.9588 25.7254L104.731 29.7935L103.608 31.6623L94.6075 26.2553L101.817 14.2542L110.578 19.5169L109.455 21.3857L102.923 17.4618L97.9588 25.7254Z" fill="white"/>
<path d="M112.599 32.2889L118.463 24.9778L120.674 26.9457L114.078 33.6052L112.599 32.2889ZM110.168 36.5244C109.819 36.2141 109.632 35.8425 109.607 35.4096C109.582 34.9766 109.711 34.6008 109.995 34.2821C110.279 33.9633 110.632 33.7963 111.057 33.7811C111.49 33.7559 111.88 33.8984 112.229 34.2087C112.578 34.5189 112.759 34.8861 112.775 35.3102C112.799 35.7243 112.669 36.0908 112.385 36.4095C112.102 36.7282 111.748 36.9046 111.325 36.9387C110.902 36.9727 110.517 36.8346 110.168 36.5244Z" fill="white"/>
</svg>
