<svg width="22" height="33" viewBox="0 0 22 33" fill="none" xmlns="http://www.w3.org/2000/svg">
<path d="M3.16168 32.1272H18.8383C20.9626 32.1272 22 31.0734 22 28.768V16.6811C22 14.6063 21.1437 13.5359 19.3817 13.3548V9.20509C19.3817 2.997 15.3144 0 11 0C6.68563 0 2.61826 2.997 2.61826 9.20509V13.4371C1.00449 13.6841 0 14.738 0 16.6811V28.768C0 31.0734 1.03743 32.1272 3.16168 32.1272ZM5.26946 8.85928C5.26946 4.72605 7.92066 2.53593 11 2.53593C14.0793 2.53593 16.7305 4.72605 16.7305 8.85928V13.3383L5.26946 13.3548V8.85928Z" fill="#898988"/>
</svg>
