<svg width="61" height="65" viewBox="0 0 61 65" fill="none" xmlns="http://www.w3.org/2000/svg">
<g clip-path="url(#clip0_311_166)">
<path d="M45.5547 44.9003C45.5633 44.8955 45.571 44.8916 45.5768 44.8887C45.5778 44.8887 45.5787 44.8878 45.5797 44.8868C45.5806 44.8859 45.5701 44.8916 45.5547 44.9003Z" fill="white"/>
<path d="M45.4922 44.9369C45.5037 44.9282 45.5345 44.9109 45.5566 44.8984C45.5345 44.91 45.5066 44.9234 45.4922 44.9369Z" fill="white"/>
<path d="M40.3203 47.367C40.3684 47.3478 40.3972 47.3353 40.3203 47.367V47.367Z" fill="white"/>
<path d="M60.6825 53.5192C60.6729 46.8338 60.6642 40.1494 60.6546 33.464C60.645 26.3134 60.7027 19.159 60.5441 12.0094C60.4556 8.02699 60.3653 4.01 59.877 0.0535789C59.8616 -0.0733036 59.3012 0.0449278 59.3195 0.20257C59.355 0.508241 59.3714 0.541884 59.3954 0.837943C59.3973 0.864858 59.3983 0.901384 59.4348 1.21571C59.4454 1.31567 59.4569 1.41468 59.4665 1.51465C55.8542 1.2753 52.2314 1.39834 48.619 1.57905C44.927 1.76361 41.2358 1.96258 37.5447 2.16733C30.1749 2.57489 22.8071 3.03147 15.4518 3.65627C13.5764 3.81584 11.7011 3.98501 9.82762 4.16861C8.9356 4.25608 8.04453 4.34547 7.15347 4.43871C6.44505 4.51273 5.74046 4.60885 5.02819 4.62711C4.24383 4.6473 2.80487 4.55598 2.59532 5.55086C2.38577 6.54669 2.61166 7.6127 2.58282 8.62103C2.54533 9.95714 2.52707 11.2933 2.52515 12.6294C2.41557 12.6726 2.30503 12.7149 2.19641 12.7591C1.59756 12.9985 1.00544 13.2532 0.419091 13.5214C0.213387 13.6156 -0.146113 13.8857 0.0634352 14.1404C0.267216 14.3865 0.750715 14.3 0.994868 14.1885C1.50144 13.9568 2.01281 13.7367 2.52803 13.5262C2.55206 19.2272 2.86446 24.9264 3.24895 30.613C3.38641 32.6499 3.52771 34.6858 3.6719 36.7216C3.49311 36.5602 3.18936 36.5678 2.96251 36.6342C2.79814 36.6822 2.61935 36.7534 2.50112 36.8822C2.42999 36.96 2.3156 37.1033 2.37231 37.2176C2.75584 37.9924 3.25953 38.6797 3.85357 39.2766C4.17654 43.8146 4.50721 48.3516 4.83114 52.8886C4.86767 53.4038 4.90419 53.919 4.94168 54.4342C4.96379 54.8562 4.9859 55.2782 5.00705 55.7002C5.01185 55.7915 5.19448 55.7953 5.24928 55.7867C8.82025 55.2744 12.4268 55.0735 16.0304 54.985C19.6053 54.8976 23.1839 54.8851 26.7597 54.887C33.8853 54.8899 41.0099 55.0062 48.1346 55.1234C52.1785 55.1898 56.2214 55.2561 60.2653 55.3022C60.4307 55.3282 60.6835 55.235 60.6835 55.1052V53.5432C60.6835 53.5345 60.6825 53.5278 60.6806 53.5201L60.6825 53.5192ZM3.11727 7.30606C3.08939 6.7697 3.05382 6.2218 3.11727 5.68735C3.13553 5.53356 3.15379 5.32112 3.24415 5.18847C3.35277 5.02795 3.59307 5.01257 3.76994 4.98758C4.28516 4.91548 4.80519 4.93567 5.32329 4.90491C6.1288 4.85781 6.93431 4.73766 7.73694 4.65595C9.56712 4.46755 11.3992 4.29261 13.2323 4.1292C20.4982 3.4794 27.7776 3.00456 35.0609 2.59123C38.0859 2.41917 41.1118 2.25768 44.1378 2.09908C45.4902 4.25127 46.8427 6.40443 48.1961 8.55663C48.3018 8.7258 48.4076 8.89402 48.5143 9.06319C48.4826 9.06127 48.4499 9.05935 48.4182 9.05743C46.5505 8.94112 44.6732 8.9392 42.8055 9.04493C41.9414 9.09395 41.0743 9.15643 40.216 9.27082C39.3835 9.38232 38.553 9.55534 37.7802 9.8937C36.9872 10.2407 36.3191 10.7675 35.8068 11.4634C35.3541 12.0795 35.0753 12.8072 34.8475 13.532C34.7389 13.877 34.6447 14.226 34.5524 14.5749C34.5207 14.696 34.6149 14.82 34.7091 14.8786C34.836 14.9575 35.033 14.9776 35.1772 14.9594C35.4867 14.9209 35.8674 14.77 35.9558 14.4374C36.0308 14.1529 36.1077 13.8684 36.1923 13.5867C36.2326 13.4512 36.2749 13.3166 36.3191 13.183C36.3422 13.1138 36.3662 13.0446 36.3912 12.9754C36.3912 12.9773 36.3912 12.9773 36.3893 12.9792L36.3912 12.9744C36.3912 12.9744 36.3912 12.9744 36.3912 12.9735C36.396 12.961 36.4085 12.9283 36.4066 12.9321C36.4201 12.8975 36.4326 12.8639 36.446 12.8293C36.5479 12.5707 36.6633 12.3179 36.7969 12.0747C36.8661 11.9488 36.9411 11.8258 37.0208 11.7066C37.0526 11.6595 37.0852 11.6018 37.1246 11.5576C37.1323 11.5499 37.1391 11.5422 37.1429 11.5364C37.1669 11.5057 37.1919 11.4759 37.2179 11.4461C37.3073 11.3413 37.4024 11.2413 37.5034 11.1471C37.5274 11.1241 37.5524 11.102 37.5774 11.0799C37.5793 11.0789 37.5812 11.077 37.5832 11.0751C37.5803 11.077 37.5793 11.0779 37.5764 11.0799C37.6428 11.0376 37.7014 10.9818 37.7658 10.9357C37.8734 10.8597 37.9859 10.7924 38.0984 10.7242C37.909 10.8395 38.1013 10.7242 38.1522 10.6992C38.2291 10.6608 38.307 10.6252 38.3848 10.5906C38.4396 10.5666 38.4954 10.5445 38.5502 10.5233C38.5559 10.5204 38.5655 10.5175 38.5761 10.5127C38.58 10.5118 38.5838 10.5098 38.5867 10.5079C38.5905 10.506 38.5944 10.505 38.5982 10.5031C38.604 10.5012 38.6088 10.4993 38.6136 10.4974C38.629 10.4916 38.6453 10.4858 38.6607 10.48C38.6511 10.4839 38.6434 10.4868 38.6347 10.4906C38.7732 10.4445 38.9125 10.4031 39.0538 10.3666C39.1971 10.3291 39.3422 10.2955 39.4874 10.2667C39.547 10.2542 39.7825 10.2167 39.5383 10.2561C39.619 10.2436 39.6988 10.2282 39.7796 10.2157C41.1263 10.0062 42.5056 9.93695 43.8667 9.89562C44.0321 9.89081 44.1974 9.88697 44.3637 9.88312C44.4137 9.88312 44.4627 9.8812 44.5127 9.88024C44.5146 9.88024 44.5165 9.88024 44.5184 9.88024C44.6069 9.87928 44.6943 9.87832 44.7828 9.87736C45.1471 9.87543 45.5114 9.87736 45.8757 9.88312C46.588 9.89562 47.2993 9.92446 48.0096 9.9706C48.8017 10.0215 49.5957 10.085 50.3839 10.1859C50.455 10.1946 50.5261 10.2061 50.5963 10.2167C50.5963 10.2167 50.5973 10.2167 50.5982 10.2167C50.6348 10.2244 50.6722 10.2321 50.7088 10.2397C50.8558 10.2724 50.9923 10.3282 51.1355 10.3705C51.1154 10.3647 51.1009 10.3599 51.0904 10.357C51.1058 10.3618 51.125 10.3695 51.1365 10.3753C51.1692 10.3916 51.2009 10.4089 51.2317 10.4272C51.2817 10.456 51.3557 10.4925 51.398 10.5377C51.4057 10.5473 51.4143 10.5579 51.4201 10.5637C51.446 10.5896 51.471 10.6165 51.4941 10.6444C51.5422 10.7011 51.5825 10.7626 51.619 10.8261C51.7306 11.0674 51.7757 11.3288 51.793 11.5932C51.8065 12.0344 51.7767 12.4775 51.7594 12.9177C51.7392 13.4156 51.7152 13.9136 51.6883 14.4105C51.6344 15.3977 51.5662 16.3839 51.4845 17.3682C51.3201 19.3464 51.1 21.3198 50.8251 23.2856C50.5492 25.2599 50.2176 27.2256 49.8302 29.1808C49.638 30.1507 49.4332 31.1177 49.2141 32.0808C49.1199 32.4932 49.0266 32.9075 48.8959 33.3102C48.8815 33.3554 48.8661 33.4006 48.8507 33.4448C48.8488 33.4515 48.8411 33.4727 48.8353 33.4871C48.8334 33.4919 48.8324 33.4958 48.8315 33.4967C48.793 33.5967 48.7517 33.6957 48.7075 33.7937C48.6219 33.9812 48.5229 34.1628 48.4076 34.333C48.3912 34.357 48.3749 34.382 48.3576 34.406C48.3537 34.4108 48.348 34.4176 48.3393 34.4272C48.3268 34.4426 48.3143 34.458 48.3009 34.4733C48.248 34.5358 48.1923 34.5944 48.1346 34.6521C48.1221 34.6617 48.1096 34.6713 48.0971 34.68C48.0327 34.7252 47.8289 34.8213 48.0644 34.7079C48.0096 34.7338 47.9568 34.7627 47.902 34.7857C47.8837 34.7934 47.8664 34.8001 47.8481 34.8078C47.7876 34.8271 47.727 34.8434 47.6645 34.8578C47.6434 34.8626 47.6213 34.8665 47.5982 34.8703H47.5963C47.5223 34.8809 47.4473 34.8876 47.3723 34.8924C47.3666 34.8924 47.3589 34.8934 47.3521 34.8943C47.3262 34.8943 47.3002 34.8943 47.2752 34.8924C47.2022 34.8895 47.1291 34.8838 47.057 34.8761C47.0311 34.8732 47.0061 34.8694 46.9811 34.8655C46.9648 34.8626 46.9484 34.8597 46.933 34.8559C46.8542 34.8386 46.7754 34.8174 46.6985 34.7934C46.662 34.7819 46.6255 34.7694 46.5899 34.7569C46.5745 34.7511 46.5591 34.7454 46.5438 34.7396C46.5438 34.7396 46.5428 34.7396 46.5418 34.7396C46.3976 34.6713 46.2592 34.5954 46.1275 34.5041C45.0942 33.0786 44.0205 31.6819 42.9814 30.2612C42.7661 29.9671 42.5537 29.671 42.3422 29.375C42.6527 29.2933 42.9324 29.1097 43.0949 28.8232C43.1929 28.6502 43.2438 28.4541 43.2871 28.2609C43.3419 28.0148 43.3919 27.7668 43.4428 27.5207C43.5534 26.993 43.662 26.4644 43.7706 25.9357C44.1945 23.8604 44.6001 21.7803 44.9866 19.6973C45.0836 19.1744 45.1798 18.6515 45.274 18.1286C45.3643 17.6297 45.4258 17.1173 45.5498 16.6252C45.5998 16.4253 45.6786 16.2292 45.8488 16.1032C46.0228 15.9744 46.2467 15.9062 46.4438 15.8235C46.9388 15.6169 47.4338 15.4102 47.9279 15.2026C48.1721 15.1007 48.4153 14.9988 48.6594 14.8969C48.7142 14.8738 48.8353 14.8248 48.8344 14.7508C48.8344 14.6797 48.7229 14.6729 48.6719 14.6758C46.2429 14.821 43.811 14.9421 41.3839 15.1151C40.2073 15.1987 39.0452 15.342 37.8984 15.6265C37.5149 15.7216 36.9891 15.812 36.7728 16.183C36.5921 16.4925 36.5114 16.879 36.4547 17.2288C36.3807 17.6816 36.3336 18.1411 36.3047 18.6015C36.1336 18.3304 35.9145 18.0872 35.6588 17.8873C35.3271 17.6287 34.9398 17.4394 34.5255 17.3605C33.9833 17.2577 33.4335 17.3346 32.8991 17.4442C31.9023 17.6499 30.942 18.0276 30.0644 18.5409C29.8914 18.6419 29.7232 18.7505 29.5578 18.8629C29.5348 18.3237 29.4819 17.7873 29.3906 17.2567C29.183 16.0533 28.7533 14.8863 28.0593 13.8761C27.4095 12.9302 26.5223 12.1545 25.5476 11.5557C23.3166 10.1859 20.6443 9.79181 18.0682 9.75624C15.3403 9.71972 12.6142 9.98117 9.93431 10.4858C7.60044 10.9251 5.30791 11.571 3.08362 12.4035C3.08362 12.1728 3.08362 11.943 3.08458 11.7123C3.09323 10.2417 3.19128 8.76425 3.1163 7.29549L3.11727 7.30606ZM47.3406 34.902C47.3137 34.9059 47.2829 34.9097 47.2666 34.902C47.2647 34.902 47.306 34.902 47.3406 34.902ZM25.2775 12.8591C25.289 12.8677 25.2977 12.8745 25.2775 12.8591V12.8591ZM4.12079 34.9578C4.19481 35.0078 4.27555 35.0491 4.35821 35.0847C4.7379 35.2481 5.16084 35.3384 5.55783 35.448C7.13425 35.8815 8.74815 36.2574 10.3784 36.4112C11.8616 36.5505 13.4015 36.5054 14.8241 36.0238C15.5402 35.7816 16.2169 35.4365 16.8196 34.9789C17.4213 34.5214 17.9442 33.9629 18.3989 33.3602C18.8584 32.7518 19.2554 32.0962 19.6254 31.4301C20.0397 30.6832 20.4271 29.9209 20.7943 29.15C21.1471 28.4089 21.4585 27.6505 21.7969 26.9036C22.0708 26.299 22.3976 25.6781 22.9407 25.2734C23.2108 25.0725 23.5367 24.9504 23.8058 24.7409C24.1259 24.4909 24.2778 24.1564 24.323 23.7585C24.372 23.3192 24.3931 22.8751 24.4268 22.4349C24.4614 21.9812 24.496 21.5284 24.5306 21.0747C24.5642 20.6297 24.5989 20.1837 24.6325 19.7386C24.6402 19.6319 24.5421 19.5608 24.4451 19.5512C21.8295 19.2897 19.2285 18.8889 16.6562 18.3496C14.0907 17.8123 11.5549 17.1346 9.06152 16.3253C7.65331 15.8677 6.95065 15.6986 5.57321 15.1574C5.49343 15.1257 4.99455 14.9344 4.62063 14.8373C4.11502 14.7671 3.59884 14.7892 3.099 14.8969C3.09227 14.3663 3.08747 13.8367 3.08554 13.3061C3.27779 13.2311 3.46908 13.1552 3.66228 13.0831C3.80647 13.0292 3.95065 12.9764 4.0958 12.9245C4.16116 12.9014 4.22653 12.8774 4.29189 12.8543C4.29285 12.8543 4.29477 12.8543 4.29573 12.8533C4.35052 12.8341 4.40435 12.8158 4.45914 12.7966C5.67895 12.3775 6.91797 12.0171 8.17238 11.7152C8.79045 11.5672 9.4114 11.4346 10.0352 11.3144C10.042 11.3134 10.0468 11.3125 10.0516 11.3115C10.0775 11.3067 10.1035 11.3019 10.1294 11.2971C10.2054 11.2836 10.2813 11.2692 10.3563 11.2558C10.5264 11.226 10.6975 11.1962 10.8686 11.1683C11.182 11.1164 11.4963 11.0693 11.8106 11.0251C13.0872 10.8463 14.3733 10.728 15.6613 10.6723C15.8151 10.6656 15.9689 10.6598 16.1227 10.655C16.1612 10.654 16.1996 10.6531 16.2381 10.6511C16.2477 10.6511 16.2813 10.6502 16.3034 10.6492C16.3227 10.6492 16.3428 10.6492 16.3496 10.6483C16.3976 10.6473 16.4457 10.6463 16.4938 10.6454C16.8263 10.6396 17.158 10.6377 17.4905 10.6415C18.1365 10.6492 18.7834 10.6771 19.4274 10.7386C19.5831 10.753 19.7389 10.7703 19.8936 10.7896C19.9715 10.7992 20.0484 10.8088 20.1262 10.8194C20.1647 10.8242 20.2041 10.8299 20.2426 10.8357C20.2454 10.8357 20.3108 10.8463 20.3406 10.8501C20.6501 10.8991 20.9587 10.9578 21.2653 11.027C21.5892 11.1 21.9093 11.1856 22.2265 11.2836C22.3573 11.324 22.4861 11.3663 22.6149 11.4115C22.6773 11.4336 22.7389 11.4557 22.8013 11.4788C22.8187 11.4855 22.9273 11.5278 22.9475 11.5355C23.4531 11.7412 23.9443 11.9815 24.4104 12.2641C24.6431 12.4054 24.869 12.5563 25.0872 12.7168C25.14 12.7562 25.1919 12.7957 25.2448 12.836C25.2554 12.8437 25.2631 12.8495 25.2698 12.8543C25.2938 12.8735 25.3179 12.8927 25.3419 12.9129C25.4563 13.0062 25.5678 13.1032 25.6764 13.2032C26.5088 13.9664 27.1384 14.8844 27.5354 15.9245C28.3755 18.1276 28.2717 20.5614 27.8411 22.8434C27.3883 25.2426 26.5252 27.4688 25.3861 29.6114C24.8122 30.6909 24.1749 31.7348 23.4896 32.747C23.158 33.2362 22.8158 33.7178 22.4611 34.1907C22.3755 34.3051 22.289 34.4185 22.2015 34.532C22.1573 34.5887 22.1141 34.6454 22.0699 34.7011C22.0477 34.729 22.0256 34.7569 22.0035 34.7857C22.0035 34.7857 21.9622 34.8376 21.9459 34.8588C21.7651 35.0837 21.5815 35.3067 21.3931 35.5259C20.6174 36.4323 19.7783 37.2859 18.8622 38.052C18.8074 38.0972 18.7526 38.1433 18.6979 38.1875C18.6921 38.1923 18.6729 38.2077 18.6575 38.2202C18.6411 38.2327 18.621 38.25 18.6142 38.2548C18.496 38.349 18.3758 38.4413 18.2547 38.5316C18.0115 38.7133 17.7645 38.8892 17.5117 39.0574C17.2627 39.2228 17.0099 39.3814 16.7514 39.5313C16.6889 39.5679 16.6254 39.6034 16.563 39.639C16.5312 39.6572 16.4995 39.6736 16.4678 39.6918C16.3361 39.762 16.2035 39.8312 16.0698 39.8985C15.794 40.036 15.5133 40.1648 15.2288 40.283C15.0952 40.3388 14.9606 40.3926 14.8251 40.4445C14.7578 40.4704 14.6895 40.4954 14.6213 40.5204C14.6184 40.5214 14.6155 40.5224 14.6126 40.5243C14.5819 40.5348 14.5521 40.5454 14.5213 40.556C14.2387 40.6512 13.9532 40.7367 13.6648 40.8117C13.5255 40.8482 13.3851 40.8819 13.2448 40.9126C13.1746 40.928 13.1045 40.9434 13.0333 40.9578C12.9997 40.9645 12.9622 40.9751 12.9276 40.9789C12.9353 40.9789 12.942 40.977 12.9487 40.977C12.9305 40.9789 12.9132 40.9818 12.9045 40.9828C12.6037 41.0356 12.3009 41.076 11.9971 41.1039C11.8539 41.1174 11.7107 41.127 11.5674 41.1347C11.5203 41.1375 11.4704 41.1414 11.4213 41.1423C11.4156 41.1423 11.4002 41.1423 11.3675 41.1423C11.3223 41.1423 11.2781 41.1433 11.2329 41.1433C10.9359 41.1433 10.6389 41.1327 10.3428 41.1068C10.214 41.0962 10.0852 41.0818 9.95738 41.0654C9.90644 41.0587 9.85453 41.053 9.80262 41.0443C9.79878 41.0443 9.79494 41.0424 9.79205 41.0424C9.74591 41.0347 9.69977 41.027 9.65363 41.0183C9.14707 40.927 8.64819 40.7934 8.16469 40.6204C8.10605 40.5993 8.04742 40.5771 7.98878 40.556C7.98302 40.5541 7.97917 40.5522 7.97436 40.5502C7.95033 40.5406 7.9263 40.531 7.90227 40.5214C7.77251 40.4685 7.6437 40.4118 7.51682 40.3532C7.2842 40.2455 7.05543 40.1273 6.83242 40.0004C6.61038 39.8735 6.39314 39.737 6.18263 39.5909C6.07497 39.5159 5.96828 39.439 5.8635 39.3593C5.83851 39.341 5.81448 39.3218 5.79045 39.3026C5.78564 39.2987 5.78372 39.2968 5.78084 39.2949C5.77987 39.2939 5.77891 39.2939 5.77795 39.292C5.72412 39.2487 5.67029 39.2045 5.61743 39.1593C5.22428 38.8258 4.86286 38.4547 4.54277 38.051C4.46779 37.9559 4.39378 37.8578 4.32265 37.7579C4.25632 36.8245 4.19 35.8911 4.12367 34.9588L4.12079 34.9578ZM13.3054 53.5182C10.6995 53.7201 8.09452 53.9382 5.49054 54.1757C5.14931 49.3955 4.80807 44.6153 4.46779 39.8351C5.29157 40.5156 6.24319 41.0491 7.26305 41.423C9.595 42.2776 12.2095 42.1603 14.553 41.4096C17.032 40.6156 19.2265 39.1737 21.0846 37.3657C22.8696 35.6287 24.372 33.588 25.6735 31.4714C26.9942 29.324 28.091 27.0199 28.7879 24.5928C29.1387 23.3721 29.3992 22.0956 29.5107 20.8094C29.753 20.5028 30.0471 20.2375 30.3528 19.9905C30.8382 19.5983 31.3726 19.2561 31.9484 19.0129C32.479 18.7889 33.0567 18.6505 33.6354 18.6755C34.1544 18.6976 34.6658 18.8447 35.1166 19.1013C35.2983 19.2042 35.4684 19.3272 35.6222 19.4666C35.6232 19.4906 35.6261 19.5147 35.6319 19.5387C36.2634 22.5531 37.6735 25.3455 39.3259 27.9216C41.0282 30.5765 43.017 33.0296 44.852 35.5903C45.372 36.316 45.8795 37.0504 46.365 37.7992C46.835 38.5259 47.3012 39.2641 47.6982 40.034C47.9779 40.6012 48.2048 41.201 48.2586 41.8344C48.2644 42.0901 48.2413 42.3439 48.174 42.5909C48.1721 42.5996 48.1634 42.6265 48.1567 42.6457C48.1519 42.6592 48.1461 42.6726 48.1442 42.6784C48.125 42.7284 48.1038 42.7784 48.0808 42.8264C48.026 42.9437 47.9337 43.0533 47.8827 43.1705C47.8693 43.1878 47.8558 43.2061 47.8424 43.2234C47.8087 43.2657 47.7741 43.3061 47.7386 43.3465C47.6511 43.4455 47.5578 43.5368 47.4636 43.6291C47.4608 43.6319 47.4598 43.6329 47.4579 43.6348C47.4502 43.6415 47.4425 43.6483 47.4348 43.655C47.3867 43.6954 47.3377 43.7348 47.2887 43.7742C47.183 43.8578 47.0753 43.9366 46.9657 44.0145C46.5188 44.3288 46.0487 44.6095 45.5787 44.8873C45.5777 44.8883 45.5652 44.896 45.5316 44.9152C45.5162 44.9238 45.5018 44.9325 45.4864 44.9411C45.4864 44.9411 45.4845 44.9421 45.4845 44.9431C45.4845 44.9431 45.4854 44.9421 45.4864 44.9411C45.4403 44.968 45.3941 44.994 45.348 45.0209C45.2173 45.0959 45.0865 45.1689 44.9548 45.242C44.6992 45.3833 44.4425 45.5217 44.183 45.6572C43.1621 46.1898 42.1154 46.6704 41.0455 47.0943C40.7821 47.1981 40.514 47.2894 40.2515 47.3971C40.2804 47.3855 40.3025 47.3759 40.3198 47.3692C40.2861 47.3827 40.2419 47.4 40.2189 47.4086C40.1525 47.4326 40.0852 47.4557 40.0189 47.4788C39.8767 47.5278 39.7344 47.5768 39.5921 47.6239C39.0471 47.8056 38.4982 47.9719 37.9436 48.1218C37.3823 48.2747 36.8161 48.4102 36.247 48.5294C35.9712 48.5871 35.6934 48.6351 35.4175 48.6899C35.6828 48.6371 35.4502 48.6842 35.3848 48.6947C35.3156 48.7063 35.2464 48.7178 35.1762 48.7293C35.0282 48.7534 34.8811 48.7755 34.7331 48.7966C33.594 48.961 32.4444 49.0542 31.2929 49.0696C31.1717 49.0715 31.0506 49.0715 30.9295 49.0715C30.9026 49.0715 30.8757 49.0715 30.8478 49.0715C30.769 49.0706 30.6892 49.0696 30.6104 49.0677C30.3201 49.061 30.0298 49.0494 29.7395 49.0331C29.1743 49.0004 28.6091 48.9504 28.0477 48.8735C27.7642 48.8351 27.4816 48.7889 27.2009 48.7361C27.1826 48.7322 27.1634 48.7293 27.1452 48.7255C27.0846 48.7101 27.0212 48.6995 26.9606 48.6861C26.8174 48.6544 26.6741 48.6198 26.5328 48.5823C25.9926 48.441 25.462 48.2631 24.9516 48.0363C24.9295 48.0267 24.9074 48.0161 24.8853 48.0065C24.8834 48.0055 24.8805 48.0046 24.8795 48.0036C24.818 47.9738 24.7565 47.944 24.6959 47.9123C24.5662 47.846 24.4383 47.7768 24.3134 47.7037C24.0731 47.5643 23.8395 47.4115 23.6155 47.2462C23.5136 47.1712 23.4137 47.0924 23.3146 47.0126C23.2656 46.9722 23.2176 46.9318 23.1695 46.8905C23.1512 46.8751 23.1339 46.8597 23.1157 46.8434C23.0772 46.8098 23.0599 46.805 23.0695 46.8146C22.9859 46.755 22.9032 46.6444 22.8369 46.5791C22.7418 46.4849 22.6495 46.3878 22.5591 46.2888C21.8526 45.5188 21.2816 44.6345 20.7818 43.7194C20.6722 43.5195 20.5674 43.3167 20.4636 43.1138C20.1484 42.4823 19.8552 41.8392 19.5658 41.1952C19.4015 40.829 18.9391 40.7732 18.5854 40.879C18.3864 40.9386 18.1711 41.0308 18.0365 41.1952C17.9452 41.3077 17.826 41.4903 17.8943 41.6432C18.62 43.259 19.364 44.9027 20.4463 46.3176C20.9865 47.0232 21.619 47.6662 22.3361 48.193C23.1166 48.7659 24.0154 49.1869 24.9353 49.4839C26.8212 50.0924 28.8417 50.2375 30.8113 50.2365C30.8113 50.2365 28.9801 50.2558 27.2307 50.1443C27.0317 50.1174 26.8337 50.0895 26.6357 50.0568C26.0455 49.9607 25.4832 49.8434 24.9314 49.6935C23.803 49.3859 22.7139 48.9139 21.7699 48.2141C20.6607 47.3913 19.8408 46.259 19.2659 45.0123C19.1833 44.8325 19.1045 44.6499 19.0295 44.4663C19.0295 44.4663 18.9632 44.2702 18.8622 44.2856C18.7478 44.3019 18.5767 44.3307 18.4883 44.4144C16.9426 45.862 15.2393 47.5557 15.3326 49.8434C15.3778 50.9431 15.8267 51.9985 16.5956 52.7857C16.7552 52.9482 16.9263 53.0972 17.107 53.2337C15.8372 53.3259 14.5684 53.4278 13.3025 53.5259L13.3054 53.5182ZM47.9125 43.134C47.9279 43.1148 47.9356 43.1042 47.9125 43.134V43.134ZM27.1413 48.7207C27.1365 48.7197 27.1317 48.7188 27.1269 48.7178C27.0221 48.6976 27.0971 48.712 27.1413 48.7207ZM54.1038 48.0728C53.8876 49.1302 53.3598 50.0962 52.6514 50.9046C52.2736 51.3362 51.8469 51.7466 51.3778 52.0783C51.2067 52.1994 51.0827 52.2724 50.9029 52.3657C50.8174 52.4099 50.7309 52.4531 50.6444 52.4935C50.5915 52.5175 50.555 52.5349 50.5357 52.5425C50.4848 52.5646 50.4348 52.5858 50.3839 52.606C49.9975 52.7636 49.6033 52.8895 49.2035 52.9972C45.7152 52.9107 42.2278 52.8905 38.7395 52.8963L37.7879 52.8982C37.2583 52.9001 36.7286 52.902 36.1999 52.904C33.7738 52.9155 31.3477 52.9318 28.9215 52.9366C27.2067 52.9405 25.4899 52.8992 23.7751 52.9155C21.7911 52.9338 19.8052 53.0385 17.8222 53.176C17.6645 53.0703 17.5127 52.953 17.3675 52.8251C16.5697 52.1225 16.0631 51.1372 15.9266 50.0847C15.7863 49.0014 16.0698 47.9459 16.6302 47.0193C17.1426 46.1725 17.8318 45.4563 18.545 44.7739C19.0218 45.8995 19.6524 46.9511 20.5136 47.8142H20.5117C20.5117 47.8142 22.2246 50.9978 25.5889 51.4996C28.9532 52.0014 33.7094 50.9286 35.8385 49.7454C36.1154 49.6935 36.3912 49.6387 36.6661 49.58C38.5982 49.1677 40.487 48.5544 42.3095 47.795C42.7056 47.6297 43.0977 47.4557 43.487 47.275C43.7812 47.1616 43.8542 47.1097 44.0936 46.9799C44.4733 46.7752 44.926 46.506 45.3364 46.2897C46.0266 45.9254 46.0987 46.0292 46.6043 46.0514C47.7511 46.1013 48.6354 46.8126 49.6428 46.9799C50.6972 47.1558 51.5604 47.0357 52.3102 46.5089C53.3839 45.7553 53.8356 44.6441 53.9673 43.9664C54.2874 44.7008 54.2528 47.3394 54.1019 48.0719L54.1038 48.0728Z" fill="white"/>
<path d="M7.45464 60.1865C7.83241 59.7385 8.57448 59.107 8.12462 58.4889C7.99582 58.3121 7.78242 58.1227 7.55365 58.1102C7.19127 58.09 6.65298 58.4466 6.33481 58.6023C6.02049 58.7561 5.71385 58.9234 5.41491 59.1022C5.41107 59.0484 5.40818 58.9955 5.40338 58.9417C5.38704 58.736 4.75455 58.265 4.74974 58.4774C4.74686 58.5918 4.74493 58.7052 4.74205 58.8196C4.74205 58.858 4.75647 58.9013 4.77954 58.9465C4.79203 59.1253 4.80549 59.304 4.81703 59.4828C4.59306 59.6337 4.37294 59.7914 4.15762 59.9567C3.98268 60.0913 4.55845 60.7305 4.76896 60.5681C4.80357 60.5421 4.83817 60.5171 4.87278 60.4912C4.89104 60.8632 4.90642 61.2352 4.91892 61.6081C4.91411 61.612 4.91026 61.6168 4.90546 61.6216C4.85259 61.6716 4.87182 61.7629 4.92853 61.8609C4.94006 62.2569 4.94871 62.6539 4.95256 63.05C4.95448 63.2345 5.10443 63.4027 5.24381 63.5113C5.28418 63.5421 5.61004 63.7478 5.60812 63.5748C5.60331 63.1076 5.59178 62.6414 5.57736 62.1752C6.23772 61.5456 6.86637 60.8843 7.45368 60.1865H7.45464ZM5.48124 60.0586C5.75038 59.8779 6.02529 59.7068 6.30789 59.5482C6.62029 59.3733 6.96634 59.1714 7.32199 59.0128C7.21241 59.1426 7.10764 59.255 7.06727 59.304C6.84426 59.577 6.61549 59.8443 6.37999 60.1076C6.10507 60.4162 5.82151 60.7151 5.53122 61.0083C5.51584 60.6921 5.50046 60.3749 5.48027 60.0586H5.48124Z" fill="white"/>
<path d="M11.3122 61.6361C11.3545 61.6275 11.3958 61.6178 11.4381 61.6092C11.6361 61.5698 11.2834 61.0642 11.0209 60.968C10.6855 60.1808 10.374 59.3839 10.0876 58.5775C10.0588 58.4967 9.85305 58.3391 9.79153 58.366C9.64062 58.2506 9.47913 58.1939 9.42626 58.3093C8.74091 59.828 8.07573 61.3564 7.43075 62.8934C7.33943 63.1106 7.98057 63.6691 8.08535 63.4182C8.24011 63.0501 8.39582 62.6819 8.5525 62.3147C8.56596 62.3147 8.57846 62.3147 8.58999 62.3109C9.41473 62.0677 10.2481 61.8601 11.0892 61.6832C11.3343 62.2253 11.589 62.7627 11.8572 63.2942C11.9062 63.3913 12.258 63.6191 12.16 63.424C11.863 62.8348 11.5804 62.2388 11.3112 61.6361H11.3122ZM8.9418 61.4121C9.28785 60.6143 9.6387 59.8184 9.99531 59.0254C10.2404 59.6848 10.5028 60.3365 10.7806 60.9825C10.1635 61.1084 9.55026 61.2516 8.9418 61.4121Z" fill="white"/>
<path d="M23.0544 61.6361C23.0967 61.6275 23.138 61.6178 23.1803 61.6092C23.3783 61.5698 23.0255 61.0642 22.7631 60.968C22.4277 60.1808 22.1162 59.3839 21.8298 58.5775C21.8009 58.4967 21.5952 58.3391 21.5337 58.366C21.3828 58.2506 21.2213 58.1939 21.1685 58.3093C20.4831 59.828 19.817 61.3564 19.1729 62.8934C19.0816 63.1106 19.7228 63.6691 19.8275 63.4182C19.9823 63.0501 20.138 62.6819 20.2947 62.3147C20.3081 62.3147 20.3206 62.3147 20.3322 62.3109C21.1569 62.0677 21.9903 61.8601 22.8314 61.6832C23.0765 62.2253 23.3312 62.7627 23.5994 63.2942C23.6484 63.3913 24.0002 63.6191 23.9022 63.424C23.6052 62.8348 23.3226 62.2388 23.0534 61.6361H23.0544ZM20.684 61.4121C21.03 60.6143 21.3809 59.8184 21.7375 59.0254C21.9826 59.6848 22.245 60.3365 22.5228 60.9825C21.9057 61.1084 21.2925 61.2516 20.684 61.4121Z" fill="white"/>
<path d="M55.1247 61.847C55.167 61.8384 55.2083 61.8288 55.2506 61.8201C55.4486 61.7807 55.0959 61.2751 54.8334 61.179C54.498 60.3917 54.1865 59.5949 53.9001 58.7884C53.8713 58.7077 53.6656 58.55 53.604 58.5769C53.4531 58.4616 53.2916 58.4049 53.2388 58.5202C52.5534 60.039 51.8882 61.5673 51.2432 63.1043C51.1519 63.3216 51.7931 63.88 51.8978 63.6292C52.0526 63.261 52.2083 62.8929 52.365 62.5257C52.3785 62.5257 52.391 62.5257 52.4025 62.5218C53.2272 62.2786 54.0606 62.071 54.9017 61.8941C55.1468 62.4363 55.4015 62.9736 55.6697 63.5052C55.7187 63.6023 56.0706 63.8301 55.9725 63.6349C55.6755 63.0457 55.3929 62.4497 55.1237 61.847H55.1247ZM52.7543 61.6231C53.1003 60.8253 53.4512 60.0294 53.8078 59.2363C54.0529 59.8957 54.3153 60.5475 54.5931 61.1934C53.976 61.3193 53.3628 61.4625 52.7543 61.6231Z" fill="white"/>
<path d="M37.4116 63.9216C37.4068 63.888 37.3857 63.8476 37.3568 63.8053C36.8791 61.9434 36.5648 60.0469 36.4206 58.1293C36.4071 57.9476 35.7977 57.4208 35.767 57.665C35.6151 58.8963 35.1297 60.0556 34.9365 61.2754C34.4376 60.3439 33.9627 59.401 33.5119 58.4455C33.4562 58.3273 32.864 57.739 32.8833 58.1129C32.9755 59.9306 33.0688 61.7483 33.1611 63.565C33.1726 63.7928 33.8301 64.3032 33.8128 63.9697C33.7378 62.5067 33.6638 61.0437 33.5888 59.5807C34.0185 60.4372 34.4655 61.285 34.9326 62.1213C34.9759 62.1982 35.5055 62.6836 35.5199 62.4327C35.5689 61.5983 35.7987 60.8024 36.0198 60.0027C36.2043 61.2686 36.4639 62.5231 36.7974 63.7611C36.8474 63.9466 37.0031 64.1322 37.1723 64.2235C37.2655 64.2744 37.4799 64.3609 37.4491 64.1658C37.4366 64.0841 37.4241 64.0024 37.4116 63.9207V63.9216Z" fill="white"/>
<path d="M17.0159 58.4474C17.1235 59.8873 17.2312 61.3263 17.3398 62.7662C16.6737 61.8454 15.9816 60.9456 15.2607 60.0661C15.2241 60.0219 14.7551 59.5961 14.7339 59.8402C14.6551 60.7601 14.2466 61.5829 13.914 62.4307C13.6554 61.1235 13.2738 59.8441 12.7826 58.6002C12.7192 58.4397 12.55 58.2571 12.3904 58.1888C12.3049 58.1523 12.1136 58.0918 12.154 58.2677C12.1713 58.3417 12.1876 58.4166 12.2049 58.4907C12.2241 58.5733 12.2693 58.657 12.327 58.7329C12.9326 60.3564 13.3392 62.0376 13.5295 63.763C13.5477 63.9274 14.1351 64.4907 14.1831 64.2273C14.4023 63.0094 15.1213 61.9434 15.3376 60.7313C16.0729 61.6522 16.7804 62.5942 17.4532 63.5631C17.508 63.6429 18.0665 64.1802 18.0396 63.814C17.9156 62.1597 17.7916 60.5054 17.6676 58.8521C17.6503 58.6243 16.9909 58.1177 17.0159 58.4474Z" fill="white"/>
<path d="M40.8392 58.0584C40.8354 58.2266 40.8305 58.3949 40.8267 58.564C40.8267 58.5679 40.8277 58.5727 40.8286 58.5775C40.7604 60.1491 40.3307 61.7265 39.5002 63.0664C39.4416 63.1606 39.2397 63.5249 39.0926 63.4826C39.0061 63.4577 38.8965 63.0386 38.8764 62.9655C38.7581 62.5531 38.6822 62.1254 38.6072 61.7034C38.4746 60.9479 38.3881 60.1847 38.3467 59.4186C38.3765 59.3974 38.3842 59.3484 38.3554 59.258C38.3467 59.234 38.341 59.2109 38.3352 59.1869C38.3294 59.0562 38.3246 58.9245 38.3217 58.7938C38.3169 58.5784 37.696 58.0209 37.6671 58.2689C37.6479 58.4362 37.6546 58.5871 37.6835 58.739C37.7296 59.7781 37.8488 60.8114 38.0584 61.8322C38.2141 62.5887 38.4707 63.8489 39.3551 64.1094C39.8136 64.2449 40.0481 63.7989 40.2413 63.4586C40.498 63.0059 40.719 62.531 40.8998 62.0437C41.3102 60.9344 41.5044 59.7636 41.4967 58.5823C41.4948 58.3314 40.8469 57.8527 40.8421 58.0575L40.8392 58.0584Z" fill="white"/>
<path d="M45.7145 59.1327C45.7433 59.1182 45.7616 59.0875 45.7597 59.0317C45.7549 58.8731 45.7376 58.7385 45.701 58.5838C45.6607 58.4098 45.5136 58.2493 45.3694 58.1522C45.3252 58.1224 45.0455 57.9609 45.0484 58.1195C45.0734 59.6152 45.1714 61.1061 45.3444 62.5912C44.2996 61.5261 43.3864 60.3496 42.6116 59.0682C42.5597 58.9827 41.9782 58.4617 42.0263 58.8174C42.2387 60.3919 42.355 61.975 42.3704 63.563C42.3723 63.7475 42.5223 63.9157 42.6616 64.0244C42.702 64.0561 43.0279 64.2608 43.0259 64.0878C43.0134 62.7296 42.9308 61.3762 42.7779 60.0276C43.6008 61.2204 44.5437 62.3259 45.5982 63.3255C45.6664 63.3899 46.0836 63.7004 46.0461 63.4053C45.8683 61.9865 45.7568 60.562 45.7164 59.1327H45.7145Z" fill="white"/>
<path d="M28.4419 59.1327C28.4708 59.1182 28.489 59.0875 28.4871 59.0317C28.4823 58.8731 28.465 58.7385 28.4285 58.5838C28.3881 58.4098 28.241 58.2493 28.0968 58.1522C28.0526 58.1224 27.7729 57.9609 27.7758 58.1195C27.8008 59.6152 27.8988 61.1061 28.0718 62.5912C27.027 61.5261 26.1138 60.3496 25.3391 59.0682C25.2872 58.9827 24.7056 58.4617 24.7527 58.8174C24.9651 60.3919 25.0815 61.975 25.0968 63.563C25.0988 63.7475 25.2487 63.9157 25.3881 64.0244C25.4285 64.0561 25.7543 64.2608 25.7524 64.0878C25.7399 62.7296 25.6572 61.3762 25.5044 60.0276C26.3272 61.2204 27.2702 62.3259 28.3246 63.3255C28.3929 63.3899 28.8101 63.7004 28.7726 63.4053C28.5948 61.9865 28.4832 60.562 28.4429 59.1327H28.4419Z" fill="white"/>
<path d="M50.4505 58.1445C49.4461 58.3502 48.4339 58.5031 47.414 58.603C47.2045 58.6232 47.6764 59.2836 47.9389 59.2576C48.2993 59.2221 48.6588 59.1779 49.0183 59.1288C49.1933 60.1372 49.3317 61.1513 49.4268 62.1702C49.4711 62.646 49.5364 63.3102 48.8645 63.2371C48.3637 63.1823 47.8648 63.0987 47.366 63.0237C47.316 63.0026 47.2641 62.9882 47.2102 62.9882C47.1641 62.9882 47.117 62.9882 47.0709 62.9882C46.8498 62.9863 47.3515 63.6149 47.5351 63.6418C48.1599 63.7312 48.8261 63.9052 49.4566 63.9081C49.9469 63.91 50.1045 63.5418 50.1112 63.0987C50.1208 62.4605 50.0017 61.7963 49.919 61.1647C49.8267 60.4573 49.7123 59.7527 49.5816 59.05C49.8267 59.0116 50.0718 58.9712 50.3169 58.927C50.3592 58.9462 50.3996 58.9568 50.4361 58.9539C50.6341 58.9347 50.7966 58.8885 50.9754 58.802C51.2349 58.6751 50.6687 58.1022 50.4505 58.1474V58.1445Z" fill="white"/>
<path d="M60.0008 61.8394C59.9335 61.8605 59.8662 61.8817 59.7989 61.9028C59.7739 61.9105 59.7586 61.9259 59.7489 61.9451C58.8598 62.3229 57.9649 62.6853 57.0642 63.0332C57.1748 61.4328 57.2142 59.8304 57.1805 58.2261C57.1767 58.0406 57.0306 57.8743 56.8893 57.7647C56.8499 57.734 56.5211 57.5283 56.525 57.7013C56.5644 59.5863 56.5038 61.4703 56.3443 63.3485C56.3279 63.5465 56.7076 64.0233 56.9345 63.9387C58.1418 63.4841 59.3385 63.0025 60.5247 62.494C60.7755 62.3863 60.2238 61.7683 59.9998 61.8394H60.0008Z" fill="white"/>
</g>
<defs>
<clipPath id="clip0_311_166">
<rect width="60.6844" height="64.2948" fill="white"/>
</clipPath>
</defs>
</svg>
