<svg width="23" height="33" viewBox="0 0 23 33" fill="none" xmlns="http://www.w3.org/2000/svg">
<path d="M22.5658 28.7336C22.5658 29.2727 22.5197 29.8082 22.3507 30.3269C22.0457 31.2668 21.398 31.8174 20.4439 32.028C20.0671 32.1114 19.6849 32.1265 19.3006 32.1265C16.7239 32.126 14.1472 32.126 11.5705 32.126C8.99378 32.126 6.41709 32.126 3.83995 32.1265C3.4303 32.1265 3.02287 32.1069 2.6212 32.0107C1.59709 31.7651 0.98173 31.1165 0.721489 30.1079C0.602674 29.6464 0.57164 29.1756 0.571197 28.7039C0.568094 25.2347 0.56765 21.7651 0.569867 18.296L0.568537 16.2034C0.568537 14.626 1.84713 13.3479 3.42409 13.3479H17.1685C17.3131 13.3479 17.3135 13.3474 17.3135 13.2042C17.3135 11.9008 17.3153 10.5978 17.3126 9.29442C17.3117 8.93664 17.3069 8.57887 17.29 8.22153C17.2603 7.57736 17.1384 6.94915 16.9313 6.33867C16.492 5.045 15.7272 4.00138 14.5391 3.30178C13.2423 2.53835 11.8396 2.34772 10.377 2.63323C8.6063 2.97948 7.31396 3.97744 6.51152 5.5943C6.03271 6.55901 5.83321 7.59465 5.82567 8.66488C5.82434 8.88433 5.82301 9.10422 5.82212 9.32368C5.81946 10.0468 5.23337 10.632 4.51028 10.632C3.77744 10.632 3.18646 10.0312 3.19843 9.29841C3.20154 9.08915 3.20597 8.8799 3.21218 8.67064C3.26449 6.74743 3.73576 4.93549 4.86362 3.3408C5.99901 1.73635 7.54583 0.732626 9.44333 0.255592C10.3043 0.039242 11.1821 -0.0361259 12.0652 0.015745C13.875 0.122147 15.514 0.697603 16.9194 1.86758C18.057 2.81455 18.8382 4.00936 19.3325 5.39745C19.5923 6.12586 19.7568 6.876 19.8494 7.64342C19.915 8.19006 19.939 8.73803 19.9385 9.28821C19.9368 10.5912 19.9376 11.8946 19.9381 13.198C19.9381 13.3723 19.939 13.3674 20.1132 13.3909C20.9094 13.4995 21.5957 13.8036 22.0502 14.5063C22.3073 14.904 22.4492 15.3465 22.4984 15.8124C22.5414 16.219 22.5644 16.629 22.5649 17.0374C22.5698 20.9361 22.5693 24.8348 22.5658 28.7336Z" fill="#898988"/>
</svg>
